<svg width="866" height="855" viewBox="0 0 866 855" fill="none" xmlns="http://www.w3.org/2000/svg">
<path d="M1.40002 464.38C1.31002 463.26 1.22001 462.14 1.14001 461.03C1.48001 456.45 1.48 451.88 0.369995 447.38C0.249995 442.95 0.12 438.53 0 434.11C0.66 429.13 0.73 424.15 0 419.17C0.14 414.41 0.290054 409.65 0.430054 404.89C1.49005 401.73 1.50996 398.49 1.07996 395.22C1.19996 393.78 1.31005 392.34 1.43005 390.9C2.68005 388.8 2.57997 386.54 2.21997 384.24C2.31997 383.13 2.43003 382.02 2.53003 380.91C4.13003 372.73 5.52004 364.52 6.04004 356.19C6.17004 355.43 6.31006 354.67 6.44006 353.91C7.58006 352.93 7.41004 351.5 7.67004 350.23C10.38 337.21 13.38 324.28 17.03 311.48C21.32 296.47 27 281.95 32.04 267.21C32.42 266.25 32.9401 265.127 33.3101 264.167C33.73 263.077 33.73 263.077 34.23 262.077C34.62 261.127 34.86 260.35 35.25 259.41C35.5 258.5 36 258 36.23 257.3C63.36 198.11 101.83 147.45 150.96 104.83C194.7 66.88 244.34 39.39 299.39 21.72C357.39 3.1 416.78 -3.47 477.43 3C517.69 7.29 556.77 16.59 594.51 31.47C659.03 56.9 713.12 96.95 759.05 148.46C795.27 189.08 822.67 235.03 841.21 286.16C862.57 345.06 869.8 405.8 863.66 468.1C858.42 521.21 844.2 571.74 819.27 619.05C811.72 633.37 803.12 647.09 794.31 660.71C777.71 686.37 758.47 709.83 736.91 731.33C703.14 765.02 664.66 792.12 621.37 812.37C600.64 822.07 579.19 829.69 557.33 836.29C553.79 836.84 550.3 837.58 547.1 839.29C546.17 839.51 545.24 839.73 544.31 839.95C541.25 839.95 538.41 840.78 535.73 842.23C534.97 842.39 534.22 842.54 533.47 842.7C532.2 842.12 531.12 842.41 530.21 843.44C529.58 843.57 528.95 843.7 528.32 843.82C527.63 843.18 527.1 843.43 526.65 844.13C525.6 844.37 524.55 844.6 523.5 844.84C519.06 844.84 514.79 845.67 510.67 847.33C509.94 847.44 509.21 847.55 508.48 847.66C506.91 847.08 505.47 847.23 504.22 848.43C503.23 848.58 502.24 848.74 501.26 848.89C495.69 849.3 490.12 849.78 484.7 851.25C483.93 851.34 483.16 851.43 482.4 851.52C479.77 851.09 477.17 850.99 474.74 852.39C473.65 852.48 472.56 852.57 471.47 852.66C468.81 852.12 466.19 852 463.73 853.44C462.97 853.51 462.21 853.57 461.45 853.64C457.16 853.05 452.91 853.26 448.7 854.29C447.93 854.34 447.17 854.39 446.41 854.44C436.13 854.44 425.85 854.44 415.57 854.44C414.13 854.39 412.69 854.34 411.26 854.29C408.39 853.22 405.45 853.17 402.48 853.81C400.75 853.67 399.01 853.52 397.28 853.38C395.14 852.02 392.86 852.16 390.54 852.73C389.44 852.62 388.34 852.51 387.24 852.4C385.14 851.07 382.87 851.15 380.55 851.61C379.79 851.52 379.03 851.42 378.27 851.33C375.86 850.06 373.28 850.09 370.67 850.4C369.86 850.32 369.05 850.23 368.24 850.15C365.48 849.12 362.69 848.23 359.67 848.75C359.04 848.63 358.42 848.52 357.8 848.4C356.52 847.31 355.1 847.01 353.51 847.66C352.76 847.55 352.01 847.43 351.27 847.32C346.87 845.47 342.21 844.91 337.49 844.67C336.77 844.5 336.06 844.32 335.34 844.15C334.83 843.46 334.21 843.35 333.49 843.82C332.73 843.66 331.97 843.49 331.22 843.33C326.88 841.19 322.17 840.48 317.46 839.74C316.75 839.56 316.05 839.37 315.35 839.19C312.67 837.52 309.65 836.94 306.6 836.45C305.34 836.09 304.08 835.73 302.82 835.38C301.95 834.95 301.12 834.4 300.2 834.1C287.59 829.96 275.09 825.53 262.87 820.34C255.11 817.05 247.4 813.66 239.66 810.32C239.3 810.13 238.94 809.95 238.58 809.76C237.03 807.85 234.92 806.98 232.57 806.55C231.9 806.29 231.22 806.04 230.55 805.78C226.12 802.07 220.96 799.64 215.73 797.33C215.33 797.13 214.93 796.93 214.53 796.73C213.09 794.73 210.98 793.87 208.7 793.29C207.35 792.42 206 791.55 204.66 790.68C203.8 789.11 202.29 788.64 200.69 788.31C199.33 787.45 197.98 786.58 196.62 785.72C196.31 784.74 195.66 784.26 194.62 784.36C194.27 784.18 193.92 783.99 193.57 783.81C191.38 781.34 188.76 779.51 185.66 778.35C185.31 778.14 184.96 777.93 184.61 777.72C182.19 774.79 179.07 772.84 175.6 771.4C175.28 771.18 174.96 770.96 174.64 770.75C172.9 768.19 170.34 766.71 167.65 765.4C167.32 765.16 166.99 764.92 166.66 764.68C166.15 763.27 165.12 762.51 163.65 762.31C162.98 761.78 162.3 761.26 161.63 760.73C161.11 759.36 160.1 758.6 158.67 758.37C157.65 757.49 156.62 756.61 155.6 755.72C155.32 754.75 154.65 754.31 153.66 754.33C152.65 753.44 151.64 752.56 150.63 751.68C150.18 750.27 149.14 749.55 147.74 749.28C145.67 747.47 143.59 745.65 141.52 743.84C140.73 742.14 139.61 740.8 137.72 740.27C130.93 733.51 124.14 726.76 117.36 720C117.4 718.9 116.81 718.32 115.77 718.13C115.77 718.13 115.56 717.87 115.56 717.88C115.25 716.4 114.31 715.52 112.91 715.05C111.39 713.37 109.87 711.69 108.35 710.01C108.37 708.94 107.87 708.29 106.8 708.1L106.6 707.85C106.57 706.81 106.03 706.19 105.03 705.93C104.45 705.28 103.87 704.64 103.3 704C102.8 702.16 101.63 700.88 99.97 700.01C99.12 698.99 98.2801 697.97 97.4301 696.96C97.4301 695.92 96.9 695.32 95.89 695.11C95.35 694.4 94.8 693.69 94.26 692.98C94.09 691.54 93.33 690.55 91.98 690.02C90.45 688.01 88.92 686.01 87.39 684.01C87.44 682.91 86.87 682.33 85.83 682.15C85.32 681.45 84.8201 680.75 84.3101 680.06C84.3601 679.07 83.97 678.36 83.01 678.01C82.75 677.68 82.49 677.35 82.23 677.02C82.34 676.01 81.91 675.37 80.9 675.15C80.4 674.41 79.9 673.66 79.41 672.92C79.1 671.3 78.52 669.86 76.84 669.18C76.35 668.46 75.87 667.74 75.38 667.02C75.43 665.99 74.91 665.35 73.97 665C73.37 664.03 72.7801 663.06 72.1801 662.1C71.7701 659.99 70.63 658.38 68.84 657.21C67.96 655.82 67.08 654.43 66.21 653.04C66.34 652.05 65.97 651.37 64.98 651.08C64.75 650.72 64.51 650.36 64.28 650.01C64.13 648.34 63.43 647.01 61.91 646.18C61.7 645.78 61.49 645.38 61.28 644.98C58.33 638.74 54.99 632.73 50.91 627.15C50.73 626.76 50.54 626.36 50.36 625.97C49.43 623.03 48.18 620.26 46.01 618C44.98 616.06 43.94 614.12 42.91 612.18C43.4 611.03 42.59 610.66 41.77 610.29C41.66 609.84 41.5401 609.4 41.4301 608.96C39.3601 602.66 36.49 596.72 33.26 590.93C32.99 590.26 32.73 589.6 32.46 588.93C32.03 587.52 31.71 586.07 31.14 584.71C21.51 561.58 14.56 537.65 9.03003 513.24C6.19003 500.73 5.03 487.96 2.5 475.42C2.43 474.63 2.35003 473.84 2.28003 473.05C2.57003 470.12 2.71002 467.21 1.40002 464.44V464.38ZM413.73 247.86C405.46 247.15 397.19 246.42 388.92 245.75C386.8 245.58 386.03 246.46 386.31 248.74C387.88 261.59 389.35 274.5 391.17 287.28C392.74 298.34 394.82 309.45 396.47 320.53C402.94 363.97 410.34 407.25 418.16 450.47C418.58 452.8 418.2 456.85 420.92 456.57C424.21 456.23 422.69 452.24 422.69 449.86C422.69 401.43 421.43 353 422.14 304.56C422.18 302.08 422.39 299.56 421.5 297.14C422.86 295.54 422.2 293.63 422.19 291.88C422.08 279.91 421.82 267.94 421.71 255.97C421.63 247.41 422.8 247.88 413.74 247.87L413.73 247.86ZM452.67 247.86C451.37 247.17 450.05 248.02 448.78 247.82C443.52 247 442.52 249.38 442.68 254.27C443.06 265.34 442.66 276.44 442.72 287.52C442.74 291.13 442.21 294.8 443.26 298.36C442.29 307.49 443.01 316.64 442.96 325.79C442.7 367.92 442.54 410.05 442.42 452.18C442.42 453.74 441.3 456.38 443.88 456.64C445.74 456.82 446.02 454.47 446.33 452.83C449.71 435.03 453.25 417.27 456.45 399.44C462.29 366.84 467.46 334.13 472.12 301.34C474.55 284.23 476.81 267.09 479.25 249.98C479.7 246.84 479.31 245.32 475.53 245.78C467.94 246.69 460.29 247.19 452.67 247.86ZM171.56 412.27C173.11 416.7 177.11 419.21 179.82 422.73C181.71 425.2 184.43 427.47 182.73 431.08C181 434.75 177.62 435.47 173.93 435.44C169.37 435.41 164.8 435.44 160.33 435.44C164.7 442.24 182.12 459.33 189.09 463.58C192.43 468.93 198.31 471.62 202.38 476.2C203.86 477.86 206.51 479.09 205.45 481.92C204.32 484.96 201.8 486.66 198.64 487C196.01 487.29 193.33 487.12 190.67 487.14C188.79 487.15 186.92 487.14 184.69 487.14C185.89 489.65 187.83 489.96 189.4 490.66C197.61 494.34 206 497.49 214.91 499.06C216.19 499.29 217.78 499.42 218.24 500.85C218.8 502.57 217.04 502.92 216.05 503.7C215.57 504.07 214.83 504.39 215.46 505.56C219.02 505.27 222.76 505.44 226.3 503.95C233.54 501.36 239.97 497.63 245.56 490.67C240.89 490.99 237.45 491.32 234.01 491.42C230.93 491.51 227.52 491.2 226.4 487.93C225.37 484.94 228.32 483.33 230.32 481.68C237.25 475.97 244.19 470.26 249.9 463.26C251.19 461.68 252.9 460.24 252.98 457.42C249.6 458.17 246.5 458.9 243.38 458.08C239.5 457.05 237.96 453.65 240.72 451.02C248.67 443.44 253.82 433.9 259.91 425.01C262.82 420.77 266.3 420.77 268.96 425.08C274.39 433.87 280.19 442.34 287.18 450C290.01 453.1 289.17 455.68 285.27 457.31C282.32 458.55 279.19 458.06 275.07 457.79C280.45 463.99 284.41 470.09 290.37 474.46C290.72 476.63 292.56 477.75 293.91 479.1C299.4 484.62 305.06 489.96 310.66 495.37C309.18 499.39 306.09 500.24 302.22 499.8C294.87 498.97 287.71 496.99 280.29 495.5C280.42 496.38 280.35 496.82 280.53 496.98C292.8 508.11 304.54 520.12 322.99 520.08C328.12 520.07 333.25 521.16 338.38 521.64C361.26 523.77 384.15 525.78 407.15 526.28C410.85 526.36 412.17 525.26 412.39 521.65C412.89 513.51 413.29 505.32 414.53 497.27C415.57 490.44 414.25 485.36 407.81 482.07C406.1 481.2 404.68 479.75 403.17 478.52C387.81 465.97 375.24 450.97 364.31 434.52C351.28 414.91 341.18 393.71 330.83 372.64C326.83 363.41 322.83 354.18 318.83 344.94C319.89 341.6 321.48 338.64 325.43 338.37C329.34 338.1 332.02 340.35 333.96 343.5C335 345.19 335.82 347.03 336.68 348.83C346.23 368.79 355.31 388.99 366.31 408.22C367.39 410.11 367.74 412.95 370.78 413.54C371.38 411.04 370.56 408.98 370.08 406.93C365.05 385.37 360.1 363.79 354.87 342.29C346.42 307.52 337.75 272.8 329.25 238.04C328.59 235.33 327.3 233.7 324.66 232.73C317.37 230.06 311.13 225.7 305.42 220.47C294.9 210.84 294.7 197.19 304.93 187.1C313.35 178.8 323.81 174.15 334.71 170.38C354.94 163.38 375.81 159.39 397.13 157.6C441.31 153.89 484.97 156.12 527.61 169.31C539.76 173.07 551.3 178.27 560.46 187.54C570.97 198.17 570.71 210.63 559.94 220.82C554.79 225.7 548.84 229.26 542.41 232.12C540.14 233.12 537.86 233.99 537.15 236.92C533.33 252.75 529.39 268.55 525.49 284.35C524.92 284.8 524.52 285.32 524.85 286.1C524.47 287.69 524.09 289.29 523.71 290.88C522.95 291.5 522.77 292.26 523.19 293.15C522.98 293.88 522.76 294.61 522.55 295.34C521.76 295.76 521.67 296.38 522.02 297.14C521.88 297.87 521.74 298.61 521.61 299.34C520.92 299.77 520.67 300.36 520.97 301.14C520.16 304.53 519.35 307.91 518.55 311.3C517.8 311.79 517.71 312.44 518.11 313.2C517.92 313.9 517.72 314.6 517.53 315.3C516.75 315.73 516.68 316.37 516.99 317.13C516.85 317.86 516.71 318.6 516.57 319.33C515.86 319.72 515.57 320.27 515.89 321.07L515.46 323.34C514.16 325.06 513.61 326.97 514 329.12C513.51 331.17 513.02 333.23 512.53 335.28C511.76 335.72 511.6 336.34 511.98 337.12C511.85 337.86 511.73 338.6 511.6 339.34C510.92 339.81 510.66 340.4 511.09 341.18C510.91 341.89 510.73 342.6 510.55 343.31C509.25 345.41 508.65 347.68 508.93 350.16C508.13 353.54 507.32 356.92 506.52 360.29C505.78 360.74 505.55 361.34 505.95 362.14C505.81 362.86 505.67 363.58 505.53 364.3C504.25 366.06 503.81 368.01 504.19 370.15C503.66 372.21 503.12 374.27 502.59 376.33C501.91 376.81 501.7 377.4 502.19 378.14C502 379.21 501.81 380.28 501.61 381.35C500.69 382.06 500.44 382.95 500.86 384.04C500.73 384.81 500.61 385.57 500.48 386.34C499.33 387.76 498.84 389.36 499.24 391.18C499 392.22 498.76 393.25 498.52 394.29C497.77 394.78 497.6 395.4 498.1 396.17C497.94 396.9 497.77 397.63 497.61 398.37C494.18 404.07 494.39 410.53 492.74 417.85C496.43 415.36 497.07 412.64 498 410.11C498.22 409.49 498.33 408.8 498.68 408.26C507.1 395.26 513.34 381.13 520.09 367.26C524.08 359.04 527.54 350.53 532.49 342.82C534.46 339.75 537.19 337.53 541.25 338.47C545.22 339.4 546.88 342.27 547.27 346.08C542.48 355.16 538.26 364.51 534.31 373.97C533.01 376.47 531.7 378.98 530.41 381.48C521.07 399.56 512.28 417.92 500.64 434.75C487.45 453.81 473.25 471.83 453.61 484.74C450.66 486.68 449.97 489.01 450.34 492.31C451.44 501.9 452.54 511.5 453.18 521.13C453.47 525.48 454.94 526.49 459.25 526.36C490.39 525.44 521.34 522.13 552.32 519.23C554.29 519.05 556.44 519.12 558.09 517.89C566.76 511.47 576.55 506.53 583.86 498.32C585.04 498.17 585.72 497.39 585.3 496.35C584.97 495.53 584.05 495.37 583.43 496.37C576.39 497.65 569.34 498.92 562.3 500.2C561.45 499.37 560.58 499.3 559.68 500.11C557.3 499.77 555.72 498.6 555.49 496.04C557.14 493.34 559.39 491.18 561.63 488.97C566.43 484.24 571.57 479.82 575.65 474.39C581.14 469.81 585.05 463.9 590.41 457.87C586.55 457.87 583.76 458.23 581.09 457.79C576.61 457.05 575.17 453.49 578.23 450.32C585.71 442.61 591.71 433.88 597.12 424.68C599.35 420.88 602.06 421.25 604.84 423.94C606.02 425.08 607.03 426.46 607.86 427.88C612.51 435.8 617.7 443.29 624.33 449.73C625.62 450.98 627.14 452.35 626.31 454.47C625.44 456.68 623.74 457.92 621.32 457.96C618.62 458.01 615.91 457.97 612.7 457.97C614.23 461.07 615.45 463.18 617.23 464.93C623.87 471.45 630.84 477.6 638.03 483.5C639.29 484.53 640.92 485.5 640.25 487.54C639.68 489.28 638.19 490.11 636.51 490.53C633.07 491.39 629.56 490.93 626.07 490.95C624.22 490.96 622.23 489.6 620.15 491.52C625.87 497.04 631.47 502.36 639.64 503.69C641.8 506.12 644.79 506.35 647.35 505.39C648.81 504.84 646.59 503.06 646.54 501.72C646.81 501.49 647.08 501.26 647.36 501.03C658.54 497.55 669.66 493.91 679.79 487.84C675.49 487.24 671.4 487.2 667.3 487.25C664.15 487.29 661.41 486.91 660.07 483.38C658.79 480 660.74 478.15 662.8 476.1C667.25 471.69 672.77 468.47 676.77 463.55C686.32 455.77 694.98 447.08 703.13 437.86C703.74 437.16 704.81 436.44 704.24 435.35C703.65 434.22 702.5 434.87 701.56 434.92C697.91 435.11 694.27 435.28 690.62 435.47C686.86 435.67 683.61 434.68 681.92 431.02C680.24 427.37 683.01 425.19 685 422.78C688.04 419.1 692.31 416.4 693.91 411.58C694.65 410.95 695.57 410.44 696.12 409.66C704.97 397.01 713.56 384.18 721.45 370.9C727.33 369.56 729.85 373.45 732.2 377.72C741.01 393.76 748.97 410.34 761.43 424.07C763.25 426.08 764.92 428.09 763.48 431.17C762.04 434.25 759.65 435.71 756.41 435.79C752.47 435.89 748.52 435.81 744.4 435.81C744.64 436.21 744.87 436.82 745.29 437.24C753.42 445.36 761.52 453.52 769.78 461.5C771.48 463.15 772.47 465.89 775.46 465.95C777.38 469.36 779.59 470.46 783.93 469.33C794.84 466.48 805.36 462.47 816.1 459.14C818.3 458.46 821.11 457.62 821.66 454.28C823.13 445.42 823.69 436.51 823.75 427.56C823.94 396.9 821.47 366.57 812.5 337.05C812.61 336.74 812.88 336.4 812.82 336.13C809.65 321.58 805.27 307.39 799.79 293.54C798.89 291.25 798.23 288.85 796.5 286.99C797.12 285.16 795.88 283.76 795.26 282.3C788.6 266.5 781.1 251.12 772.31 236.39C765.17 224.42 757.75 212.63 749.08 201.68C747.87 198.68 745.48 196.52 743.52 194.09C727.51 174.17 710.13 155.54 690.86 138.7C685.96 134.52 681.1 130.28 676.15 126.17C664.41 116.43 652.21 107.32 638.82 99.91C638.19 99.37 637.63 98.74 636.93 98.32C613.77 84.26 589.36 72.8 563.96 63.39C563.2 62.65 562.38 62.17 561.28 62.65C560.71 62.56 560.13 62.48 559.56 62.39C552.59 58.74 544.86 57.44 537.37 55.5C511.17 48.7 484.6 44.05 457.57 42.2C440.87 40.72 424.17 40.68 407.47 42.1C392.94 42.4 378.69 45.12 364.43 47.44C344.4 50.7 324.66 55.33 305.58 62.44C303.82 62.88 301.99 63.14 300.32 63.79C282.35 70.83 264.43 78.06 247.5 87.38C240.34 91.32 232.78 94.69 226.56 100.19C216.41 105.12 207.49 111.94 198.53 118.67C190.78 124.49 183.09 130.42 176.41 137.52C167.93 143.47 161.09 151.19 153.91 158.53C140.64 172.1 127.86 186.09 116.96 201.69C108.25 212.98 100.5 224.91 93.35 237.23C84.03 253.28 74.93 269.46 68.65 287.02C67 291.19 65.12 295.29 63.75 299.54C59.77 311.86 55.32 324.04 53.25 336.9C52.65 338.61 51.89 340.28 51.46 342.04C49.12 351.75 47.46 361.59 46.04 371.46C42.14 398.76 41.23 426.15 43.66 453.64C43.86 455.86 44.63 457.22 46.95 457.98C57.69 461.52 68.26 465.55 79.05 468.98C84.54 470.72 87.87 468.92 90.78 464.74C101.37 456.03 110.71 446.1 120.82 435.2C115.66 435.55 112.03 435.97 108.39 435.99C105.2 436.01 102.03 435.66 100.52 432C98.99 428.31 100.46 425.45 102.93 422.99C108.52 417.41 112.99 411.01 117.02 404.29C122.75 394.73 128.47 385.15 133.84 375.39C135.91 371.62 138.46 369.98 142.62 370.77C145.97 375.9 149.16 381.14 152.71 386.12C158.95 394.86 163.76 404.64 171.61 412.21L171.56 412.27ZM621.47 585.4C621.56 586.17 621.68 588.17 622.02 590.13C627.19 619.98 632.37 649.82 637.59 679.66C639.22 689 640.73 698.38 642.74 707.64C644.15 714.16 648.48 717.74 653.95 717.99C660.11 718.28 663.71 715.49 666.08 708.36C667.97 702.68 669.55 696.89 671.51 691.23C673.68 684.96 674.74 678.26 678.24 672.49C681.19 667.63 685.97 667.7 688.73 672.69C690.08 675.14 690.9 677.91 691.77 680.59C694.89 690.25 697.79 699.98 701.06 709.58C702.5 713.8 704.98 717.24 710.12 717.76C717.59 718.52 721.89 715.24 723.56 706.3C729.04 677.01 734.37 647.69 739.66 618.37C741.61 607.56 743.54 596.73 745.06 585.86C746.46 575.87 740.2 569.86 730.65 571.57C724.79 572.62 721.89 576.49 720.84 582.11C717.47 600.1 714.15 618.09 710.6 636.04C710.03 638.93 710.74 643.85 707.51 644.07C704.33 644.29 704.2 639.34 703.17 636.52C698.61 624.01 694.26 611.43 689.78 598.9C688.66 595.77 686.87 593.12 683.09 593.1C679.19 593.08 677.73 596.12 676.56 599.08C674.97 603.1 673.68 607.23 672.27 611.32C668.7 621.7 665.42 632.19 660.86 642.2C660.34 643.34 660.08 645.16 658.43 644.91C656.82 644.67 657.06 642.86 656.8 641.62C655.86 637.23 654.88 632.84 654.08 628.42C651.21 612.7 648.59 596.93 645.51 581.25C644.07 573.9 638.67 570.47 631.62 571.5C625.21 572.44 621.41 577.17 621.47 585.39V585.4ZM128.99 644.15H129.02C129.02 654.14 129.04 664.13 129.02 674.12C129 684.27 128.87 694.43 128.92 704.58C128.97 713.88 132.75 717.68 141.91 717.7C151.73 717.72 161.56 717.72 171.37 717.5C194.61 716.97 215.85 696.32 216.49 673.04C216.98 655.41 216.95 637.74 216.46 620.11C215.75 594.58 194.12 573.04 168.69 572.09C159.21 571.74 149.71 571.83 140.23 571.95C131.92 572.06 129 575.24 128.99 583.73C128.97 603.87 128.99 624.02 128.99 644.16V644.15ZM519.39 644.75H519.37C519.37 624.6 519.32 604.44 519.41 584.29C519.43 580.02 518.44 576.43 514.77 573.87C509.79 570.4 504.45 570.15 499.13 572.56C494.12 574.83 492.78 579.24 492.82 584.54C492.96 600.2 492.76 615.86 492.91 631.51C492.94 635.13 491.99 636.52 488.15 636.44C478.83 636.25 469.5 636.5 460.17 636.53C453.68 636.55 453.64 636.51 453.64 629.96C453.63 614.64 453.69 599.31 453.64 583.99C453.61 576.94 450.8 572.98 445.12 571.55C435.24 569.07 428.18 574.22 428 584.31C427.82 594.63 427.21 605.03 428.09 615.27C429.19 628.02 426.22 638.46 415.47 646.04C415.07 646.32 414.8 646.78 414.42 647.1C411.23 649.81 411.74 652.4 414.54 655.07C417.91 658.29 421.07 661.73 424.52 664.86C427.38 667.46 428.04 670.49 427.98 674.23C427.8 685.21 427.64 696.22 428.15 707.18C428.49 714.63 434.22 718.86 441.92 718.49C449.42 718.12 453.65 713.68 453.69 705.86C453.74 695.37 453.74 684.87 453.57 674.38C453.52 671.29 454.22 669.87 457.69 669.94C468.18 670.17 478.68 670.16 489.17 670.09C492.21 670.07 493.11 671.1 493.02 674.2C492.74 684.19 492.75 694.18 492.76 704.18C492.77 712.88 498.03 718.59 505.86 718.6C514.26 718.6 519.37 713.26 519.39 704.22C519.44 684.4 519.4 664.58 519.4 644.76L519.39 644.75ZM529.37 646.08C529.32 646.08 529.27 646.08 529.22 646.08C529.22 655.9 529.41 665.73 529.17 675.55C528.91 686.27 532.75 695.33 539.27 703.56C550.25 717.42 568.68 723.38 585.92 718.53C603.72 713.52 617.49 698.91 618.65 681.63C620.22 658.21 620.62 634.67 618.84 611.26C617.08 588.21 595.9 570.66 572.36 571.41C549.49 572.14 530.05 591.57 529.42 614.6C529.13 625.08 529.37 635.58 529.37 646.07V646.08ZM331.51 645.3C331.45 645.3 331.4 645.3 331.34 645.3C331.34 654.96 331.21 664.62 331.37 674.27C331.75 697.28 347.54 715.61 370.17 719.51C386.51 722.33 404.61 714.84 412.02 702.19C417.72 692.45 414.89 681.56 405.36 676.46C399.06 673.09 393.65 673.74 388.07 678.63C382.5 683.51 375.58 685.05 368.47 681.96C362.14 679.21 358.48 674 358.37 667.1C358.13 653.29 358.08 639.46 358.47 625.65C358.69 617.75 363.21 612.9 370.72 610.43C378.5 607.87 385.2 609.99 391.08 615.11C394.48 618.07 398.06 618.54 402.2 617.3C413.14 614.04 417.72 603.84 412.87 593.12C409.73 586.18 404.32 581.26 397.93 577.47C369.71 560.74 333.16 580.43 331.6 613.32C331.1 623.95 331.52 634.63 331.52 645.28L331.51 645.3ZM325.81 590.91C325.85 579.59 319.71 572.25 308.51 570.81C299.46 569.65 291.53 573.12 283.99 577.65C266.29 588.28 252.17 616.87 272.03 640.58C277.48 647.09 282.97 653.56 288.39 660.1C291.35 663.68 294.72 667.01 296.71 671.28C299.19 676.62 295.75 681.65 289.9 681.2C287.61 681.02 285.32 680.36 283.1 679.68C277.67 678.01 272.76 678.74 268.95 683.09C265.06 687.53 264.61 692.81 266.99 698.07C271.41 707.82 278.78 714.46 289.1 717.58C300.12 720.92 310.86 717.44 317.25 708.02C328.55 691.36 331.31 667.58 315.23 648.75C308.12 640.42 300.26 632.63 294.61 623.11C292.83 620.11 291.86 616.94 294.04 613.73C296.34 610.34 299.79 610.18 303.42 610.69C317.91 612.71 325.75 605.78 325.8 590.9L325.81 590.91ZM228.95 643.18H228.65C228.65 663.33 228.65 683.49 228.65 703.64C228.65 709.13 230.14 713.77 235.29 716.68C242.97 721.02 255.93 717.56 255.83 703.59C255.53 665.28 255.61 626.97 255.52 588.66C255.52 586.17 255.5 583.64 255.1 581.2C254.16 575.47 249.54 571.52 243.72 571.15C234.15 570.55 229.13 574.71 229.02 584.22C228.8 603.87 228.95 623.53 228.95 643.18ZM391.23 434.75C392.62 442.35 390.27 451.9 400.73 455.2C401.77 455.53 402.71 456.92 403.85 455.99C404.96 455.08 403.99 453.82 403.77 452.73C398.46 426.32 394.16 399.73 389.6 373.18C382.44 331.53 376.21 289.73 370.62 247.84C370.18 244.55 368.77 243.31 365.73 242.74C360.17 241.69 354.63 240.51 349.18 239C345.69 238.03 345.12 238.7 346.01 242.16C350.05 257.87 353.85 273.65 357.79 289.39C367.01 326.18 375.77 363.09 383.9 400.13C386.43 411.64 388.79 423.19 391.23 434.73V434.75ZM460.52 457.01C466.48 454.8 470.79 452.59 471.99 445.79C474.75 430.1 478.18 414.51 481.66 398.96C489.79 362.59 498.9 326.45 508.03 290.32C512.07 274.35 515.84 258.31 519.76 242.3C520.26 240.27 521.27 238.04 517.51 238.88C511.18 240.3 504.86 241.81 498.5 243.11C496.2 243.58 495.72 244.95 495.43 246.95C492.15 270.13 488.86 293.31 485.48 316.48C480.49 350.74 474.07 384.77 468.06 418.86C465.85 431.42 463.12 443.9 460.51 457L460.52 457.01ZM370.95 415.01C371.07 414.9 371.28 414.79 371.29 414.67C371.29 414.55 371.1 414.42 371 414.3C370.88 414.47 370.75 414.64 370.63 414.81C370.74 414.88 370.85 414.94 370.96 415.01H370.95Z" fill="#1B2939"/>
<path d="M621.75 585.813C621.69 577.603 625.49 572.863 631.9 571.923C638.95 570.893 644.35 574.333 645.79 581.673C648.86 597.353 651.49 613.123 654.36 628.843C655.17 633.263 656.15 637.643 657.08 642.043C657.35 643.283 657.1 645.103 658.71 645.333C660.36 645.573 660.62 643.763 661.14 642.623C665.7 632.613 668.98 622.123 672.55 611.743C673.96 607.653 675.25 603.513 676.84 599.503C678.01 596.543 679.46 593.503 683.37 593.523C687.15 593.543 688.94 596.193 690.06 599.323C694.55 611.853 698.89 624.443 703.45 636.943C704.48 639.763 704.61 644.713 707.79 644.493C711.02 644.273 710.31 639.343 710.88 636.463C714.43 618.513 717.75 600.513 721.12 582.533C722.17 576.913 725.07 573.043 730.93 571.993C740.48 570.283 746.75 576.293 745.34 586.283C743.81 597.163 741.89 607.983 739.94 618.793C734.64 648.113 729.32 677.433 723.84 706.723C722.17 715.663 717.87 718.943 710.4 718.183C705.26 717.663 702.78 714.223 701.34 710.003C698.07 700.403 695.17 690.673 692.05 681.013C691.18 678.323 690.36 675.563 689.01 673.113C686.25 668.123 681.47 668.043 678.52 672.913C675.02 678.673 673.96 685.373 671.79 691.653C669.84 697.313 668.25 703.103 666.36 708.783C663.99 715.913 660.39 718.693 654.23 718.413C648.76 718.163 644.43 714.573 643.02 708.063C641.01 698.803 639.51 689.423 637.87 680.083C632.65 650.243 627.47 620.403 622.3 590.553C621.96 588.593 621.84 586.593 621.75 585.823V585.813Z" fill="#F4F5F6"/>
<path d="M129.27 644.553C129.27 624.413 129.26 604.263 129.27 584.123C129.27 575.633 132.2 572.453 140.51 572.343C150 572.223 159.5 572.133 168.97 572.483C194.4 573.423 216.03 594.973 216.74 620.503C217.23 638.133 217.25 655.803 216.77 673.433C216.13 696.713 194.89 717.363 171.65 717.893C161.83 718.123 152.01 718.113 142.19 718.093C133.03 718.073 129.25 714.283 129.2 704.973C129.14 694.823 129.27 684.663 129.3 674.513C129.32 664.523 129.3 654.533 129.3 644.543H129.27V644.553ZM156.55 646.523H156.63C156.63 656.843 156.63 667.153 156.63 677.473C156.63 679.673 156.43 681.953 159.76 681.883C165.08 681.783 170.42 682.423 175.71 681.563C183 680.373 189.05 674.393 189.43 667.113C190.13 653.653 190.23 640.163 189.4 626.703C188.9 618.593 183.16 612.773 175.1 611.803C170.34 611.233 165.46 611.703 160.66 611.313C157.19 611.033 156.44 612.393 156.49 615.573C156.65 625.893 156.55 636.203 156.55 646.523Z" fill="#F4F5F6"/>
<path d="M519.67 645.153C519.67 664.973 519.7 684.793 519.66 704.613C519.64 713.653 514.53 719.003 506.13 718.993C498.31 718.993 493.04 713.273 493.03 704.573C493.02 694.583 493 684.583 493.29 674.593C493.38 671.493 492.48 670.463 489.44 670.483C478.95 670.553 468.45 670.563 457.96 670.333C454.49 670.263 453.79 671.683 453.84 674.773C454.01 685.263 454.01 695.763 453.96 706.253C453.92 714.073 449.69 718.513 442.19 718.883C434.5 719.253 428.77 715.023 428.42 707.573C427.92 696.603 428.08 685.603 428.25 674.623C428.31 670.883 427.65 667.853 424.79 665.253C421.34 662.123 418.18 658.683 414.81 655.463C412.01 652.783 411.5 650.203 414.69 647.493C415.07 647.173 415.34 646.713 415.74 646.433C426.49 638.853 429.46 628.413 428.36 615.663C427.47 605.413 428.09 595.023 428.27 584.703C428.45 574.613 435.51 569.453 445.39 571.943C451.07 573.373 453.89 577.333 453.91 584.383C453.97 599.703 453.91 615.033 453.91 630.353C453.91 636.903 453.95 636.943 460.44 636.923C469.77 636.903 479.1 636.643 488.42 636.833C492.26 636.913 493.21 635.523 493.18 631.903C493.03 616.243 493.23 600.593 493.09 584.933C493.04 579.633 494.39 575.223 499.4 572.953C504.72 570.543 510.07 570.793 515.04 574.263C518.71 576.823 519.69 580.413 519.68 584.683C519.6 604.833 519.64 624.993 519.64 645.143H519.66L519.67 645.153Z" fill="#F4F5F6"/>
<path d="M529.65 646.483C529.65 635.993 529.41 625.503 529.7 615.013C530.33 591.973 549.77 572.553 572.64 571.823C596.18 571.073 617.36 588.623 619.12 611.673C620.9 635.083 620.51 658.623 618.93 682.043C617.77 699.323 603.99 713.933 586.2 718.943C568.96 723.793 550.53 717.833 539.55 703.973C533.03 695.743 529.19 686.683 529.45 675.963C529.69 666.143 529.5 656.313 529.5 646.493C529.55 646.493 529.6 646.493 529.65 646.493V646.483ZM591.86 646.223H591.92C591.92 638.723 592.06 631.223 591.88 623.733C591.66 614.553 585.19 608.633 575.62 608.553C565.36 608.463 557.53 614.303 557.34 623.073C557 638.563 556.97 654.073 557.34 669.553C557.57 679.143 564.94 685.323 574.6 685.093C584.58 684.843 591.62 678.263 591.82 668.733C591.97 661.233 591.85 653.733 591.85 646.243L591.86 646.223Z" fill="#F4F5F6"/>
<path d="M331.79 645.703C331.79 635.043 331.36 624.373 331.87 613.743C333.43 580.843 369.98 561.153 398.2 577.893C404.59 581.683 410 586.603 413.14 593.543C417.99 604.263 413.41 614.463 402.47 617.723C398.33 618.953 394.76 618.493 391.35 615.533C385.46 610.413 378.77 608.293 370.99 610.853C363.48 613.323 358.96 618.173 358.74 626.073C358.35 639.883 358.41 653.703 358.64 667.523C358.76 674.423 362.41 679.623 368.74 682.383C375.84 685.473 382.77 683.943 388.34 679.053C393.91 674.163 399.33 673.513 405.63 676.883C415.16 681.983 418 692.873 412.29 702.613C404.88 715.263 386.78 722.753 370.44 719.933C347.81 716.033 332.03 697.693 331.64 674.693C331.48 665.043 331.61 655.383 331.61 645.723C331.67 645.723 331.72 645.723 331.78 645.723L331.79 645.703Z" fill="#F4F5F6"/>
<path d="M775.71 466.423C775.99 465.473 776.49 464.533 776.51 463.573C777.08 441.123 777.06 418.803 770.01 397.003C764.55 380.113 758.06 363.923 746.83 349.953C743.74 346.113 739.65 343.613 735.54 341.123C731.21 338.503 730.35 335.583 732.8 331.173C735.12 326.983 738.46 323.803 742.67 321.573C748.05 318.723 754.58 320.953 757.93 326.873C760.89 332.093 762.98 337.713 764.91 343.383C766.12 346.933 767.76 348.633 772.24 347.703C785.9 344.873 799.4 341.563 812.74 337.523C821.72 367.043 824.19 397.373 823.99 428.033C823.93 436.993 823.37 445.903 821.9 454.753C821.35 458.093 818.54 458.923 816.34 459.613C805.6 462.943 795.09 466.963 784.17 469.803C779.83 470.933 777.62 469.833 775.7 466.423H775.71Z" fill="#76D1C8"/>
<path d="M53.4701 337.383C65.7001 342.243 78.3702 345.593 91.1902 348.423C95.9602 349.473 98.7302 347.223 100.51 343.013C102.9 337.353 105.29 331.683 107.99 326.173C110.66 320.723 117.05 318.333 122.38 321.103C126.91 323.453 131.11 326.313 133.44 331.463C135.25 335.473 134.73 338.473 131.18 340.413C115.23 349.133 108.28 364.473 101.95 380.113C92.1302 404.383 88.3301 429.723 89.8401 455.843C90.0201 458.983 90.6102 462.103 91.0102 465.233C88.1102 469.413 84.7702 471.223 79.2802 469.473C68.4902 466.043 57.9202 462.013 47.1802 458.473C44.8602 457.713 44.0902 456.353 43.8902 454.133C41.4602 426.643 42.3702 399.253 46.2702 371.953C47.6802 362.073 49.3402 352.233 51.6902 342.533C52.1102 340.783 52.8701 339.103 53.4801 337.393L53.4701 337.383Z" fill="#76D1C8"/>
<path d="M326.08 591.313C326.03 606.183 318.19 613.123 303.7 611.103C300.06 610.593 296.62 610.753 294.32 614.143C292.14 617.353 293.11 620.523 294.89 623.523C300.54 633.043 308.4 640.833 315.51 649.163C331.59 668.003 328.83 691.783 317.53 708.433C311.14 717.853 300.4 721.333 289.38 717.993C279.06 714.863 271.69 708.233 267.27 698.483C264.89 693.233 265.33 687.953 269.23 683.503C273.04 679.163 277.95 678.433 283.38 680.093C285.6 680.773 287.88 681.433 290.18 681.613C296.04 682.063 299.48 677.033 296.99 671.693C295 667.413 291.64 664.093 288.67 660.513C283.26 653.973 277.76 647.503 272.31 640.993C252.45 617.273 266.56 588.693 284.27 578.063C291.81 573.533 299.75 570.063 308.79 571.223C319.98 572.663 326.12 580.003 326.09 591.323L326.08 591.313Z" fill="#F4F5F6"/>
<path d="M229.23 643.583C229.23 623.933 229.08 604.273 229.3 584.623C229.41 575.113 234.43 570.953 244 571.553C249.81 571.923 254.43 575.873 255.38 581.603C255.78 584.053 255.79 586.573 255.8 589.063C255.9 627.373 255.81 665.683 256.11 703.993C256.22 717.963 243.26 721.423 235.57 717.083C230.42 714.173 228.92 709.533 228.93 704.043C228.94 683.893 228.93 663.733 228.93 643.583H229.23Z" fill="#F4F5F6"/>
<path d="M142.85 371.243C148.44 368.773 154.38 368.433 160.33 368.573C164.37 368.673 167 367.243 168.4 363.423C168.97 361.873 169.61 360.243 170.63 358.973C176.17 352.083 178.68 344.903 177 335.613C175.53 327.533 185.67 313.483 193.12 310.373C195.64 309.323 197.71 310.483 199.72 311.513C206.07 314.743 210.96 320.203 217.56 323.183C220.12 324.333 218.12 326.443 217.06 327.713C209.32 337.053 202.55 347.033 196.22 357.383C186.2 373.783 178.58 391.183 173.09 409.553C172.77 410.633 172.99 411.933 171.83 412.673C163.98 405.103 159.17 395.333 152.93 386.583C149.38 381.603 146.19 376.363 142.84 371.233L142.85 371.243Z" fill="#76D1C8"/>
<path d="M694.16 412.043C691.35 404.253 688.68 396.403 685.7 388.683C677.86 368.373 666.229 350.233 653.339 332.833C652.649 331.903 652 330.933 651.24 330.063C648.41 326.813 647.96 324.613 652.71 322.223C657.24 319.943 661.01 316.193 665.18 313.183C670.03 309.693 672.72 309.793 677.19 313.633C681.81 317.593 684.99 322.683 687.71 328.013C689.66 331.823 690.03 335.883 688.52 340.063C687.34 343.333 687.51 346.603 689.37 349.663C692.39 354.623 695.33 359.643 698.45 364.533C700.25 367.353 702.78 368.603 706.38 368.683C711.55 368.793 716.99 368.183 721.68 371.353C713.8 384.633 705.199 397.463 696.349 410.113C695.809 410.883 694.89 411.393 694.14 412.033L694.16 412.043Z" fill="#76D1C8"/>
<path d="M117.19 202.163C120.09 206.193 124.93 208.163 127.63 212.543C131.76 219.223 132.24 222.943 126.99 228.603C111.73 245.053 101.28 264.573 90.3599 283.883C86.4499 290.803 81.2899 294.233 72.5499 288.693C71.3599 287.943 70.2399 287.483 68.8799 287.493C75.1599 269.923 84.26 253.753 93.58 237.703C100.73 225.393 108.48 213.453 117.19 202.163Z" fill="#76D1C8"/>
<path d="M796.74 287.453C794.91 287.243 793.65 288.383 792.21 289.233C785.42 293.253 780.48 291.873 776.36 284.953C770.84 275.663 766.37 265.803 760.55 256.653C753.94 246.243 746.4 236.583 738.68 227.013C734.35 221.643 734.74 216.383 739.55 211.353C742.63 208.123 746.05 205.213 749.31 202.153C757.98 213.103 765.4 224.903 772.54 236.863C781.33 251.593 788.83 266.973 795.49 282.773C796.1 284.233 797.35 285.633 796.73 287.463L796.74 287.453Z" fill="#76D1C8"/>
<path d="M226.79 100.663C227.7 114.993 220.65 125.463 210.27 134.163C205.82 137.893 201.12 141.373 196.24 144.513C188.83 149.283 179.59 146.053 176.64 137.993C183.32 130.903 191.01 124.973 198.76 119.153C207.71 112.423 216.63 105.603 226.79 100.673V100.663Z" fill="#76D1C8"/>
<path d="M691.1 139.163C689.25 139.603 687.95 140.843 686.56 142.063C679.32 148.423 672.4 148.593 665.2 142.353C659.69 137.573 654.38 132.563 649.11 127.523C642.94 121.623 639.83 114.333 639.62 105.773C639.58 103.973 639.24 102.173 639.05 100.373C652.44 107.773 664.64 116.883 676.38 126.633C681.34 130.743 686.19 134.983 691.09 139.163H691.1Z" fill="#76D1C8"/>
<path d="M189.37 463.983C202.57 456.133 214.71 462.193 217.06 477.483C217.9 482.913 217.63 488.393 218.7 493.823C219.69 498.853 222.13 502.213 226.59 504.353C223.04 505.843 219.31 505.673 215.75 505.963C215.12 504.783 215.86 504.473 216.34 504.103C217.33 503.333 219.09 502.983 218.53 501.253C218.07 499.823 216.48 499.693 215.2 499.463C206.29 497.893 197.9 494.753 189.69 491.063C188.12 490.363 186.18 490.053 184.98 487.543C187.21 487.543 189.08 487.553 190.96 487.543C193.62 487.523 196.3 487.693 198.93 487.403C202.09 487.063 204.61 485.363 205.74 482.323C206.8 479.483 204.14 478.263 202.67 476.603C198.6 472.023 192.73 469.333 189.38 463.983H189.37Z" fill="#76D1C8"/>
<path d="M331.12 373.053C330.12 373.613 329.01 374.053 328.13 374.763C321.58 380.103 314.4 380.873 307.83 376.873C302.91 373.873 299.31 365.963 300.37 360.473C302.01 351.953 306.78 347.223 315.16 345.833C316.47 345.613 317.8 345.513 319.11 345.353C323.11 354.583 327.11 363.813 331.11 373.053H331.12Z" fill="#76D1C8"/>
<path d="M547.52 346.503C556.85 346.703 561.8 349.873 564.55 357.383C566.75 363.393 564.63 370.693 559.34 375.293C553.97 379.963 546.06 380.723 539.31 377.613C537.47 376.763 536.96 374.213 534.57 374.393C538.52 364.923 542.74 355.573 547.53 346.493L547.52 346.503Z" fill="#76D1C8"/>
<path d="M647.61 501.473C647.94 493.733 648.1 485.923 648.9 478.273C650.11 466.733 657.91 458.383 671.3 462.433C673.19 463.003 675.11 463.483 677.02 464.003C673.02 468.913 667.5 472.133 663.05 476.553C660.99 478.603 659.04 480.453 660.32 483.833C661.66 487.363 664.41 487.743 667.55 487.703C671.64 487.653 675.73 487.693 680.04 488.293C669.9 494.363 658.79 498.003 647.61 501.483V501.473Z" fill="#76D1C8"/>
<path d="M407.7 42.5727C405.89 48.8127 400.04 48.9027 395.56 49.2327C367.75 51.2927 340.5 56.4227 313.49 63.1127C310.94 63.7427 308.33 64.3527 305.81 62.9027C324.89 55.8027 344.63 51.1727 364.66 47.9027C378.92 45.5827 393.17 42.8627 407.7 42.5627V42.5727Z" fill="#76D1C8"/>
<path d="M559.8 62.8626C558.3 65.1226 556.29 64.1226 554.4 63.6726C537.28 59.5726 520.2 55.2926 502.71 53.0126C490.53 51.4226 478.34 49.9926 466.13 48.6226C462.14 48.1726 459.25 46.5226 457.8 42.6726C484.83 44.5226 511.41 49.1726 537.6 55.9726C545.09 57.9126 552.82 59.2126 559.79 62.8626H559.8Z" fill="#76D1C8"/>
<path d="M452.94 248.273C451.19 258.493 452.55 268.753 452.58 278.993C452.58 280.983 452.5 282.983 452.62 284.963C453.04 291.863 451.55 297.453 443.53 298.773C442.48 295.203 443.01 291.543 442.99 287.923C442.93 276.843 443.33 265.743 442.95 254.673C442.78 249.783 443.78 247.393 449.05 248.223C450.32 248.423 451.64 247.573 452.94 248.263V248.273Z" fill="#76D1C8"/>
<path d="M421.76 297.563C414.44 296.913 413.83 296.363 413.83 289.213C413.83 275.573 413.94 261.933 414 248.293C423.05 248.303 421.88 247.833 421.96 256.393C422.07 268.363 422.33 280.333 422.44 292.303C422.46 294.053 423.11 295.963 421.75 297.563H421.76Z" fill="#76D1C8"/>
<path d="M290.66 474.873C296.45 471.573 301.1 474.193 305.48 477.823C311.18 482.543 313.56 490.503 310.95 495.783C305.35 490.373 299.69 485.033 294.2 479.513C292.86 478.163 291.01 477.043 290.66 474.873Z" fill="#76D1C8"/>
<path d="M555.74 496.473C552.55 486.933 560.7 474.783 570.49 474.553C572.29 474.513 574.09 474.733 575.89 474.833C571.81 480.263 566.68 484.683 561.87 489.413C559.63 491.613 557.39 493.783 555.73 496.483L555.74 496.473Z" fill="#76D1C8"/>
<path d="M639.9 504.143C642.2 503.483 644.5 502.823 646.79 502.163C646.84 503.503 649.06 505.283 647.6 505.833C645.04 506.803 642.05 506.573 639.89 504.133L639.9 504.143Z" fill="#76D1C8"/>
<path d="M371.22 415.413C371.11 415.343 371 415.283 370.89 415.213C371.01 415.043 371.14 414.873 371.26 414.703C371.37 414.823 371.56 414.953 371.55 415.073C371.55 415.193 371.33 415.293 371.21 415.413H371.22Z" fill="#F4F5F6"/>
<path d="M572.5 112.323C581.77 112.733 587.94 116.603 593.13 121.893C596.81 125.633 595.74 130.143 593.3 134.343C586.66 145.783 586.6 145.883 597.31 153.563C607.81 161.103 618.44 168.453 629.07 175.813C635.64 180.363 637.89 187.963 634.11 193.403C628.87 200.943 621.42 202.703 614.26 197.863C603.54 190.613 592.96 183.133 582.22 175.903C577.57 172.773 575.83 167.173 571.1 163.973C566.53 160.883 561.5 158.693 556.95 155.653C552.93 152.963 550.98 148.923 552.66 144.593C556.19 135.463 560.1 126.483 564.69 117.833C566.61 114.213 569.49 111.873 572.49 112.333L572.5 112.323Z" fill="#76D1C8"/>
<path d="M291.46 112.533C296.71 112.223 299.82 114.233 301.66 118.703C304.7 126.083 307.97 133.363 311.28 140.623C314.79 148.343 313.72 152.923 306.21 156.733C298.06 160.873 290.67 165.573 285.9 173.703C285.04 175.163 283.17 176.073 281.68 177.123C271.75 184.063 261.88 191.083 251.82 197.843C245.49 202.103 238.23 201.023 233.89 195.633C228.12 188.463 229.5 181.413 237.55 175.803C249.27 167.633 260.93 159.383 272.56 151.083C277.85 147.303 278.44 144.343 274.66 138.883C265.45 125.553 269.78 121.183 282.42 114.983C285.34 113.553 288.41 111.873 291.44 112.523L291.46 112.533Z" fill="#76D1C8"/>
<path d="M310.85 256.703C296.46 264.533 283.19 273.683 269.6 282.283C259.93 288.403 250.97 295.593 242.17 302.913C239.21 305.373 237.25 305.923 234.44 302.433C232.08 299.513 228.88 297.253 226.71 294.043C221.68 286.603 223.05 281.203 231.09 276.923C232.54 276.153 234.15 275.453 235.27 274.303C240.91 268.533 240.98 266.543 236.23 259.703C235.28 258.343 234.32 256.993 233.31 255.673C229.34 250.493 229.4 244.953 233.52 240.313C237.58 235.733 243.36 234.903 248.77 238.203C254.94 241.973 260.52 246.473 264.19 252.803C266.4 256.613 269.3 257.803 273.62 257.683C284.59 257.383 295.52 256.013 306.52 256.473C307.96 256.533 309.41 256.613 310.85 256.683V256.703Z" fill="#76D1C8"/>
<path d="M554.82 255.613C563.91 256.113 572.17 256.553 580.43 257.033C582.08 257.133 583.73 257.363 585.37 257.563C593.68 258.543 600.58 257.703 605.33 248.913C608.4 243.233 614.43 239.183 620.95 237.123C624.96 235.853 629.03 235.663 632.29 239.593C635.69 243.703 637.03 247.983 634.52 252.873C633.32 255.213 631.71 257.363 630.12 259.483C624.87 266.483 625.83 271.573 633.55 276.043C635.61 277.233 637.3 278.733 639.03 280.283C642.92 283.783 642.58 288.033 640.88 292.173C638.58 297.783 633.19 300.733 629 304.693C627.7 305.923 626.61 304.803 625.54 303.953C611.62 292.943 597.44 282.263 582.39 272.843C575.22 268.353 567.68 264.463 560.31 260.313C558.49 259.283 556.41 258.593 554.82 255.623V255.613Z" fill="#76D1C8"/>
<path d="M620.49 389.473C608.28 389.413 597.31 378.253 597.97 365.783C598.58 354.143 606.97 345.103 620.91 344.893C632.49 344.723 643.71 356.393 643.4 367.443C643.05 380.133 633.28 389.533 620.49 389.473Z" fill="#76D1C8"/>
<path d="M267.77 366.743C267.84 378.983 256.67 389.473 243.54 389.493C231.93 389.513 223.05 380.163 222.91 367.773C222.78 355.553 232.96 344.603 245.14 344.883C258.93 345.193 268.02 355.713 267.77 366.743Z" fill="#76D1C8"/>
<path d="M431.9 115.493C426.75 115.493 421.59 115.483 416.44 115.493C411.6 115.513 408.33 113.383 406.43 108.813C404.77 104.823 404.47 100.743 404.89 96.5926C405.34 92.1426 409.04 88.7726 413.74 88.7226C426.04 88.5726 438.35 88.5126 450.65 88.6626C456.31 88.7326 460.02 93.3826 459.49 100.283C458.77 109.723 456.18 116.283 444.37 115.543C440.23 115.283 436.06 115.503 431.9 115.503V115.493Z" fill="#76D1C8"/>
<path d="M232.95 422.983C232.95 434.043 223.92 442.703 212.36 442.703C202.07 442.703 193.94 434.693 193.9 424.503C193.86 412.683 202.65 403.463 213.9 403.533C224.79 403.593 232.93 411.913 232.94 422.983H232.95Z" fill="#76D1C8"/>
<path d="M652.46 442.723C641.39 442.763 633.61 434.783 633.58 423.393C633.56 412.163 641.85 403.553 652.75 403.503C662.79 403.453 672.96 413.343 672.49 423.503C672.02 433.673 664.42 443.093 652.45 442.713L652.46 442.723Z" fill="#76D1C8"/>
<path d="M485.68 109.413C485.69 98.3227 490.26 94.0827 501.17 95.7327C509.04 96.9227 516.86 98.5827 524.59 100.493C532 102.323 535.09 108.003 533.3 115.353C531.1 124.383 526.64 127.513 518.52 126.043C511.17 124.723 503.75 123.793 496.4 122.463C488.64 121.063 485.67 117.293 485.68 109.403V109.413Z" fill="#76D1C8"/>
<path d="M365.2 95.5027C373.06 95.3927 377.68 99.4727 378.76 105.633C380.19 113.773 377.93 119.663 371.88 121.323C362.44 123.903 352.76 125.493 343.04 126.723C338.04 127.353 335.17 124.603 333.45 120.453C332.57 118.333 332.08 115.983 331.86 113.693C331.09 105.543 332.99 102.743 340.92 100.853C349.63 98.7627 358.42 96.9927 365.21 95.5127L365.2 95.5027Z" fill="#76D1C8"/>
<path d="M291.67 426.653C281.99 426.623 274.74 418.993 274.78 408.883C274.82 398.613 283.41 389.743 293.34 389.693C303.52 389.643 311.84 398.253 311.69 408.683C311.57 417.653 301.5 426.683 291.67 426.653Z" fill="#76D1C8"/>
<path d="M572.3 390.293C582.37 390.293 591.8 399.483 591.68 409.193C591.57 418.543 583.05 426.743 573.49 426.683C563.26 426.623 554.86 417.773 554.73 407.363C554.63 399.463 562.2 389.263 572.3 390.283V390.293Z" fill="#76D1C8"/>
<path d="M554.71 449.733C554.71 458.683 547.21 465.683 537.72 465.593C528.72 465.503 519.83 456.393 519.92 447.343C520.01 437.473 526.93 430.473 536.54 430.533C546.94 430.593 554.71 438.803 554.72 449.733H554.71Z" fill="#76D1C8"/>
<path d="M345.83 447.513C345.82 457.273 337.11 465.603 327.01 465.523C317.86 465.453 312.01 459.073 311.73 449.483C311.38 437.253 321.44 430.743 330.53 430.603C339.02 430.473 345.83 438.203 345.82 447.513H345.83Z" fill="#76D1C8"/>
<path d="M171.82 228.303C171.69 225.123 172.95 222.383 175.04 220.173C179.72 215.243 184.79 210.673 190.32 206.733C194.94 203.443 200.2 204.193 203.72 208.203C208.12 213.213 209.17 220.213 205.62 224.143C200.61 229.683 195.3 234.983 189.27 239.413C186.2 241.673 182.51 242.573 178.96 240.523C174.35 237.863 171.63 233.873 171.82 228.293V228.303Z" fill="#76D1C8"/>
<path d="M569.27 332.673C559.29 332.543 552.57 325.543 552.79 315.493C552.99 306.163 560.2 299.353 569.64 299.603C578.79 299.833 585.84 307.893 585.74 317.713C585.66 325.123 578.62 333.623 569.27 332.673Z" fill="#76D1C8"/>
<path d="M658.68 217.333C658.32 211.623 661.63 207.983 666.22 205.503C670.35 203.273 673.74 205.403 677.04 208.103C682.06 212.193 687.24 216.003 691.03 221.423C694.76 226.753 694.62 234.033 690.33 238.263C685.99 242.543 680.09 242.893 674.63 238.373C669.66 234.253 665.16 229.543 660.63 224.913C658.66 222.903 658.47 220.133 658.67 217.333H658.68Z" fill="#76D1C8"/>
<path d="M295.36 332.633C285.65 333.743 280.36 324.473 280.03 316.733C279.64 307.573 287.9 299.483 297.04 299.593C306.17 299.703 312.78 306.733 312.82 316.383C312.86 325.833 305.56 332.623 295.36 332.633Z" fill="#76D1C8"/>
<path d="M697.66 275.993C697.66 267.433 703.43 261.633 712.04 261.563C720.76 261.483 728.56 269.423 728.44 278.263C728.33 286.433 721.54 293.513 713.77 293.553C705.12 293.603 697.67 285.483 697.67 275.993H697.66Z" fill="#76D1C8"/>
<path d="M137.84 278.683C137.78 269.873 145.85 261.703 154.67 261.643C162.64 261.593 168.7 268.003 168.75 276.553C168.8 284.493 159.65 293.393 151.37 293.473C143.68 293.543 137.9 287.223 137.84 278.683Z" fill="#76D1C8"/>
<path d="M331.91 503.363C332.04 496.173 336.78 491.603 344.03 491.703C350.84 491.793 356.71 497.443 356.74 503.943C356.77 510.703 350.47 516.503 343.18 516.423C336.21 516.343 331.77 511.203 331.91 503.373V503.363Z" fill="#76D1C8"/>
<path d="M534.95 504.133C534.87 510.633 529.17 516.643 523.3 516.443C516.06 516.183 511.5 511.303 511.57 503.883C511.63 496.643 516.68 491.573 523.76 491.643C530.4 491.713 535.04 496.893 534.95 504.143V504.133Z" fill="#76D1C8"/>
<path d="M156.55 646.523C156.55 636.203 156.65 625.883 156.49 615.573C156.44 612.403 157.19 611.033 160.66 611.313C165.46 611.703 170.34 611.233 175.1 611.803C183.16 612.773 188.9 618.593 189.4 626.703C190.23 640.153 190.13 653.653 189.43 667.113C189.05 674.393 183 680.383 175.71 681.563C170.42 682.423 165.08 681.783 159.76 681.883C156.43 681.943 156.63 679.673 156.63 677.473C156.63 667.153 156.63 656.843 156.63 646.523H156.55Z" fill="#1B2939"/>
<path d="M591.86 646.223C591.86 653.723 591.98 661.223 591.83 668.713C591.63 678.243 584.59 684.833 574.61 685.073C564.95 685.313 557.58 679.123 557.35 669.533C556.98 654.043 557.01 638.543 557.35 623.053C557.54 614.293 565.37 608.453 575.63 608.533C585.2 608.613 591.67 614.533 591.89 623.713C592.07 631.203 591.93 638.713 591.93 646.203H591.87L591.86 646.223Z" fill="#1B2939"/>
</svg>
