<svg width="1372" height="334" viewBox="0 0 1372 334" fill="none" xmlns="http://www.w3.org/2000/svg">
<path d="M1096.46 32.9876C1096.32 14.7069 1104.77 4.16935 1119.05 2.08205C1134.74 -0.207251 1146.76 7.43497 1149.97 23.7967C1156.8 58.7086 1162.66 93.8056 1169.04 128.802C1170.84 138.632 1173.02 148.395 1175.1 158.175C1175.69 160.936 1175.15 164.976 1178.74 165.515C1182.41 166.053 1183 162.013 1184.16 159.472C1194.31 137.185 1201.61 113.837 1209.56 90.7252C1212.69 81.6185 1215.57 72.4108 1219.1 63.4724C1221.71 56.8906 1224.95 50.1237 1233.63 50.1742C1242.05 50.2247 1246.02 56.1331 1248.51 63.0852C1258.49 90.9945 1268.17 119.005 1278.32 146.847C1280.61 153.125 1280.9 164.134 1287.98 163.646C1295.17 163.158 1293.59 152.183 1294.85 145.769C1302.75 105.808 1310.15 65.7448 1317.65 25.7157C1319.98 13.2087 1326.43 4.60702 1339.48 2.26722C1360.75 -1.5539 1374.69 11.8284 1371.56 34.0818C1368.16 58.2878 1363.89 82.3928 1359.53 106.464C1347.74 171.743 1335.89 237.005 1323.69 302.199C1319.97 322.096 1310.39 329.402 1293.78 327.718C1282.33 326.557 1276.81 318.898 1273.61 309.505C1266.34 288.127 1259.87 266.463 1252.94 244.967C1251 238.991 1249.18 232.83 1246.17 227.376C1240.03 216.266 1229.39 216.098 1222.81 226.922C1215.01 239.749 1212.66 254.663 1207.83 268.634C1203.47 281.225 1199.95 294.12 1195.74 306.761C1190.47 322.618 1182.44 328.829 1168.74 328.19C1156.57 327.617 1146.92 319.655 1143.79 305.145C1139.32 284.525 1135.97 263.652 1132.33 242.863C1120.71 176.439 1109.18 110.016 1097.67 43.5756C1096.91 39.2159 1096.64 34.7551 1096.44 33.0549L1096.46 32.9876Z" fill="#F4F5F6"/>
<path d="M0.185867 163.764C0.185867 118.92 0.1522 74.0771 0.185867 29.2505C0.2027 10.3638 6.70006 3.2602 25.2165 3.02454C46.3252 2.75521 67.4846 2.55321 88.5765 3.34437C145.186 5.44851 193.329 53.406 194.911 110.235C196.005 149.489 196.056 188.811 194.962 228.066C193.531 279.895 146.263 325.85 94.5351 327.045C72.6857 327.55 50.8027 327.533 28.9534 327.499C8.55165 327.466 0.152052 319.016 0.0342208 298.311C-0.100444 275.704 0.202355 253.097 0.252854 230.49C0.303353 208.254 0.252854 186.017 0.252854 163.781H0.185867V163.764ZM60.9194 168.14H61.1048C61.1048 191.101 61.1048 214.078 61.1048 237.038C61.1048 241.937 60.6501 247.004 68.0735 246.869C79.9071 246.65 91.8083 248.064 103.575 246.145C119.785 243.502 133.268 230.187 134.11 213.977C135.658 184.014 135.878 153.967 134.043 124.021C132.932 105.959 120.155 93.0143 102.211 90.8597C91.6062 89.5804 80.7491 90.624 70.0601 89.7655C62.3337 89.1427 60.6672 92.1726 60.7682 99.2425C61.1217 122.203 60.9026 145.18 60.9026 168.14H60.9194Z" fill="#F4F5F6"/>
<path d="M869.228 165.094C869.228 209.213 869.296 253.333 869.195 297.469C869.144 317.602 857.782 329.503 839.08 329.486C821.674 329.469 809.942 316.743 809.925 297.385C809.891 275.132 809.875 252.878 810.497 230.659C810.699 223.757 808.679 221.468 801.929 221.518C778.565 221.67 755.201 221.703 731.853 221.198C724.127 221.03 722.561 224.195 722.679 231.079C723.05 254.427 723.066 277.791 722.948 301.156C722.864 318.561 713.438 328.442 696.739 329.267C679.62 330.109 666.86 320.682 666.086 304.101C664.958 279.693 665.312 255.184 665.716 230.743C665.851 222.427 664.386 215.677 658.006 209.887C650.33 202.934 643.294 195.259 635.803 188.088C629.558 182.129 628.431 176.372 635.534 170.346C636.376 169.622 636.982 168.612 637.874 167.972C661.811 151.088 668.426 127.842 665.969 99.4614C663.999 76.6525 665.362 53.5238 665.766 30.5298C666.154 8.05762 681.875 -3.4057 703.876 2.11556C716.518 5.29701 722.78 14.1176 722.847 29.806C722.982 63.9099 722.847 98.0306 722.864 132.151C722.864 146.729 722.949 146.83 737.408 146.779C758.163 146.729 778.935 146.156 799.691 146.577C808.242 146.762 810.363 143.665 810.279 135.602C809.942 100.757 810.396 65.8962 810.077 31.0348C809.976 19.2516 812.972 9.42112 824.115 4.37119C835.966 -0.998572 847.85 -0.44307 858.943 7.30016C867.107 13.0066 869.295 20.9855 869.262 30.4962C869.076 75.3564 869.178 120.217 869.178 165.094H869.228Z" fill="#F4F5F6"/>
<path d="M891.448 168.057C891.448 144.709 890.926 121.345 891.548 98.014C892.946 46.7404 936.24 3.47931 987.144 1.86333C1039.55 0.196851 1086.69 39.2665 1090.6 90.5569C1094.57 142.672 1093.68 195.074 1090.18 247.206C1087.6 285.669 1056.93 318.191 1017.31 329.334C978.929 340.124 937.907 326.86 913.465 296.005C898.955 277.69 890.404 257.508 890.993 233.638C891.532 211.789 891.111 189.906 891.111 168.04C891.229 168.04 891.33 168.04 891.448 168.04V168.057ZM1029.93 167.484H1030.08C1030.08 150.786 1030.4 134.087 1030 117.406C1029.51 96.9704 1015.1 83.79 993.809 83.6049C970.984 83.4029 953.545 96.4149 953.124 115.924C952.383 150.399 952.299 184.923 953.124 219.397C953.646 240.742 970.041 254.511 991.537 253.973C1013.76 253.434 1029.43 238.756 1029.87 217.546C1030.2 200.864 1029.93 184.166 1029.93 167.467V167.484Z" fill="#F4F5F6"/>
<path d="M450.993 166.322C450.993 142.605 450.05 118.836 451.161 95.169C454.629 21.9282 535.983 -21.8884 598.821 15.3464C613.045 23.7798 625.098 34.7381 632.083 50.1741C642.873 74.0266 632.672 96.7345 608.332 103.99C599.107 106.733 591.162 105.69 583.587 99.1079C570.474 87.7119 555.594 82.9986 538.256 88.6882C521.54 94.1758 511.491 104.983 510.986 122.573C510.128 153.311 510.245 184.081 510.767 214.835C511.036 230.204 519.167 241.768 533.256 247.913C549.062 254.797 564.481 251.38 576.887 240.506C589.293 229.632 601.346 228.167 615.368 235.675C636.578 247.02 642.907 271.277 630.198 292.958C613.702 321.12 573.403 337.801 537.044 331.523C486.679 322.837 451.531 282.033 450.69 230.81C450.336 209.314 450.622 187.818 450.622 166.322C450.74 166.322 450.875 166.322 450.993 166.322Z" fill="#F4F5F6"/>
<path d="M438.301 45.242C438.183 78.3528 420.744 93.7887 388.475 89.2774C380.378 88.1496 372.702 88.5031 367.585 96.0443C362.737 103.198 364.892 110.251 368.848 116.934C381.422 138.127 398.928 155.465 414.751 173.998C450.538 215.93 444.394 268.87 419.246 305.953C405.022 326.91 381.119 334.67 356.576 327.23C333.616 320.261 317.204 305.499 307.373 283.784C302.071 272.102 303.064 260.335 311.733 250.454C320.216 240.792 331.158 239.159 343.244 242.863C348.176 244.378 353.277 245.842 358.377 246.246C371.406 247.239 379.082 236.045 373.544 224.161C369.117 214.634 361.626 207.244 355.027 199.265C342.975 184.704 330.754 170.312 318.617 155.819C274.397 103.03 305.824 39.3841 345.231 15.7336C362.013 5.6506 379.688 -2.0758 399.82 0.499661C424.733 3.69795 438.402 20.0429 438.317 45.242H438.301Z" fill="#F4F5F6"/>
<path d="M222.702 161.593C222.702 117.843 222.366 74.0772 222.854 30.3448C223.089 9.16881 234.267 -0.0893965 255.578 1.25725C268.522 2.06524 278.807 10.8858 280.911 23.6285C281.804 29.0655 281.837 34.7046 281.837 40.2427C282.056 125.519 281.854 210.813 282.527 296.089C282.763 327.197 253.911 334.889 236.808 325.227C225.345 318.746 222.012 308.428 222.029 296.207C222.063 251.347 222.029 206.47 222.029 161.609H222.686L222.702 161.593Z" fill="#F4F5F6"/>
</svg>
