<svg width="32" height="32" viewBox="0 0 32 32" fill="none" xmlns="http://www.w3.org/2000/svg">
<ellipse cx="16.0042" cy="16.0184" rx="15.6717" ry="15.5528" fill="white"/>
<path d="M0.051747 17.3818C0.0484205 17.3399 0.0450936 17.2979 0.0421367 17.2563C0.0547036 17.0846 0.0547028 16.9134 0.0136756 16.7447C0.0092402 16.5787 0.00443538 16.4131 0 16.2474C0.0243946 16.0608 0.0269819 15.8741 0 15.6875C0.00517461 15.5091 0.0107208 15.3307 0.0158954 15.1523C0.0550746 15.0339 0.0558102 14.9125 0.0399168 14.7899C0.0443522 14.736 0.0484216 14.682 0.0528569 14.628C0.0990588 14.5493 0.0953596 14.4646 0.0820535 14.3784C0.0857496 14.3368 0.0898175 14.2952 0.0935137 14.2536C0.152652 13.9471 0.204029 13.6394 0.223249 13.3272C0.228054 13.2987 0.233229 13.2703 0.238034 13.2418C0.280171 13.205 0.273886 13.1515 0.283496 13.1039C0.383662 12.6159 0.494546 12.1313 0.629455 11.6516C0.78802 11.0891 0.997962 10.5449 1.18425 9.99254C1.19829 9.95656 1.21751 9.91448 1.23119 9.8785C1.24671 9.83765 1.24671 9.83765 1.26519 9.80017C1.27961 9.76457 1.28848 9.73545 1.30289 9.70022C1.31213 9.66612 1.33061 9.64738 1.33911 9.62115C2.34188 7.4029 3.76379 5.50432 5.57971 3.90707C7.1964 2.48482 9.03117 1.45459 11.0659 0.792374C13.2097 0.0945574 15.4048 -0.151665 17.6465 0.0908097C19.1346 0.251585 20.5791 0.600119 21.974 1.15777C24.3587 2.11081 26.358 3.61175 28.0556 5.54218C29.3944 7.06448 30.4071 8.78654 31.0924 10.7027C31.8819 12.9101 32.1491 15.1864 31.9222 17.5212C31.7285 19.5116 31.2029 21.4053 30.2814 23.1784C30.0024 23.715 29.6845 24.2292 29.3589 24.7396C28.7453 25.7013 28.0342 26.5805 27.2373 27.3862C25.9891 28.6488 24.5668 29.6645 22.9668 30.4234C22.2006 30.7869 21.4077 31.0725 20.5998 31.3198C20.4689 31.3404 20.3399 31.3681 20.2216 31.4322C20.1873 31.4405 20.1529 31.4487 20.1185 31.457C20.0054 31.457 19.9004 31.4881 19.8014 31.5424C19.7733 31.5484 19.7456 31.554 19.7179 31.56C19.6709 31.5383 19.631 31.5492 19.5974 31.5878C19.5741 31.5926 19.5508 31.5975 19.5275 31.602C19.502 31.578 19.4824 31.5874 19.4658 31.6136C19.427 31.6226 19.3882 31.6312 19.3493 31.6402C19.1852 31.6402 19.0274 31.6713 18.8751 31.7335C18.8482 31.7377 18.8212 31.7418 18.7942 31.7459C18.7362 31.7242 18.6829 31.7298 18.6367 31.7748C18.6001 31.7804 18.5635 31.7864 18.5273 31.792C18.3214 31.8074 18.1156 31.8254 17.9152 31.8805C17.8868 31.8838 17.8583 31.8872 17.8302 31.8906C17.733 31.8745 17.6369 31.8707 17.5471 31.9232C17.5068 31.9266 17.4665 31.9299 17.4262 31.9333C17.3279 31.9131 17.2311 31.9086 17.1402 31.9625C17.1121 31.9652 17.084 31.9674 17.0559 31.97C16.8973 31.9479 16.7402 31.9558 16.5846 31.9944C16.5562 31.9963 16.5281 31.9981 16.5 32C16.12 32 15.7401 32 15.3601 32C15.3069 31.9981 15.2536 31.9963 15.2008 31.9944C15.0947 31.9543 14.986 31.9524 14.8763 31.9764C14.8123 31.9711 14.748 31.9655 14.6841 31.9603C14.605 31.9093 14.5207 31.9146 14.4349 31.9359C14.3943 31.9318 14.3536 31.9277 14.313 31.9236C14.2354 31.8737 14.1515 31.8767 14.0657 31.8939C14.0376 31.8906 14.0095 31.8868 13.9814 31.8835C13.8924 31.8359 13.797 31.837 13.7005 31.8486C13.6706 31.8456 13.6406 31.8422 13.6107 31.8392C13.5087 31.8006 13.4056 31.7673 13.2939 31.7868C13.2707 31.7823 13.2477 31.7781 13.2248 31.7736C13.1775 31.7328 13.125 31.7216 13.0663 31.7459C13.0385 31.7418 13.0108 31.7373 12.9835 31.7332C12.8208 31.6638 12.6486 31.6429 12.4741 31.6339C12.4475 31.6275 12.4213 31.6207 12.3947 31.6144C12.3758 31.5885 12.3529 31.5844 12.3263 31.602C12.2982 31.596 12.2701 31.5896 12.2424 31.5836C12.082 31.5034 11.9079 31.4768 11.7338 31.4491C11.7076 31.4424 11.6817 31.4352 11.6558 31.4285C11.5568 31.3659 11.4451 31.3442 11.3324 31.3258C11.2858 31.3123 11.2393 31.2988 11.1927 31.2857C11.1605 31.2696 11.1298 31.249 11.0958 31.2377C10.6298 31.0826 10.1677 30.9166 9.71607 30.7221C9.42925 30.5988 9.14428 30.4717 8.8582 30.3465C8.84489 30.3394 8.83158 30.3327 8.81827 30.3255C8.76098 30.254 8.68299 30.2214 8.59613 30.2052C8.57137 30.1955 8.54624 30.1861 8.52148 30.1764C8.35774 30.0374 8.16701 29.9463 7.9737 29.8597C7.95892 29.8522 7.94414 29.8447 7.92935 29.8372C7.87613 29.7623 7.79814 29.73 7.71386 29.7083C7.66397 29.6757 7.61407 29.6431 7.56454 29.6105C7.53276 29.5517 7.47694 29.534 7.41781 29.5217C7.36754 29.4894 7.31764 29.4568 7.26737 29.4246C7.25591 29.3879 7.23189 29.3699 7.19345 29.3736C7.18051 29.3669 7.16757 29.3598 7.15464 29.353C7.07369 29.2605 6.97685 29.1919 6.86227 29.1484C6.84934 29.1405 6.8364 29.1327 6.82346 29.1248C6.73402 29.015 6.6187 28.9419 6.49044 28.8879C6.47861 28.8797 6.46679 28.8714 6.45496 28.8636C6.39064 28.7676 6.29602 28.7122 6.1966 28.6631C6.1844 28.6541 6.1722 28.6451 6.16001 28.6361C6.14116 28.5833 6.10308 28.5548 6.04875 28.5473C6.02399 28.5274 5.99885 28.5079 5.97409 28.4881C5.95487 28.4367 5.91754 28.4082 5.86468 28.3996C5.82698 28.3666 5.78891 28.3337 5.75121 28.3003C5.74086 28.264 5.7161 28.2475 5.67951 28.2482C5.64217 28.2149 5.60484 28.1819 5.56751 28.1489C5.55088 28.0961 5.51244 28.0691 5.46069 28.059C5.38418 27.9911 5.3073 27.9229 5.23079 27.8551C5.20159 27.7914 5.16019 27.7411 5.09034 27.7213C4.83937 27.4679 4.5884 27.215 4.3378 26.9616C4.33928 26.9204 4.31747 26.8987 4.27903 26.8916C4.27903 26.8916 4.27127 26.8818 4.27127 26.8822C4.25982 26.8267 4.22507 26.7937 4.17332 26.7761C4.11714 26.7132 4.06096 26.6502 4.00478 26.5872C4.00552 26.5471 3.98704 26.5228 3.94749 26.5157L3.9401 26.5063C3.93899 26.4673 3.91903 26.4441 3.88207 26.4343C3.86063 26.41 3.83919 26.386 3.81813 26.362C3.79964 26.293 3.7564 26.2451 3.69504 26.2125C3.66362 26.1742 3.63258 26.136 3.60116 26.0982C3.60116 26.0592 3.58157 26.0367 3.54424 26.0288C3.52428 26.0022 3.50395 25.9756 3.48399 25.949C3.47771 25.895 3.44962 25.8579 3.39972 25.8381C3.34317 25.7628 3.28662 25.6878 3.23007 25.6128C3.23191 25.5716 3.21084 25.5499 3.1724 25.5431C3.15355 25.5169 3.13508 25.4907 3.11623 25.4648C3.11807 25.4277 3.10366 25.4011 3.06817 25.388C3.05856 25.3756 3.04895 25.3633 3.03934 25.3509C3.04341 25.313 3.02752 25.289 2.99019 25.2808C2.97171 25.2531 2.95323 25.225 2.93511 25.1972C2.92366 25.1365 2.90222 25.0825 2.84012 25.0571C2.82201 25.0301 2.80427 25.0031 2.78616 24.9761C2.78801 24.9375 2.76879 24.9135 2.73404 24.9004C2.71186 24.8641 2.69006 24.8277 2.66788 24.7917C2.65273 24.7127 2.61059 24.6523 2.54443 24.6085C2.5119 24.5564 2.47938 24.5043 2.44722 24.4522C2.45202 24.4151 2.43835 24.3896 2.40176 24.3787C2.39326 24.3652 2.38439 24.3518 2.37589 24.3386C2.37034 24.276 2.34447 24.2262 2.28829 24.1951C2.28053 24.1801 2.27276 24.1651 2.265 24.1501C2.15597 23.9163 2.03251 23.691 1.88171 23.4819C1.87506 23.4673 1.86803 23.4523 1.86138 23.4377C1.82701 23.3275 1.78081 23.2237 1.7006 23.139C1.66253 23.0663 1.62409 22.9936 1.58602 22.9209C1.60413 22.8778 1.57419 22.8639 1.54388 22.8501C1.53982 22.8332 1.53538 22.8167 1.53132 22.8002C1.45481 22.5641 1.34873 22.3415 1.22934 22.1245C1.21936 22.0994 1.20975 22.0747 1.19977 22.0496C1.18388 21.9967 1.17205 21.9424 1.15098 21.8914C0.795042 21.0246 0.538161 20.1277 0.333763 19.2129C0.228793 18.7441 0.185916 18.2655 0.0924038 17.7956C0.0898165 17.766 0.0868606 17.7364 0.0842733 17.7068C0.0949921 17.5969 0.100167 17.4879 0.051747 17.3841V17.3818ZM15.2921 9.26737C14.9864 9.24076 14.6807 9.2134 14.3751 9.18829C14.2967 9.18192 14.2683 9.2149 14.2786 9.30034C14.3366 9.78192 14.391 10.2657 14.4582 10.7447C14.5163 11.1592 14.5931 11.5756 14.6541 11.9908C14.8933 13.6188 15.1668 15.2408 15.4558 16.8605C15.4713 16.9478 15.4573 17.0996 15.5578 17.0891C15.6794 17.0764 15.6233 16.9269 15.6233 16.8377C15.6233 15.0227 15.5767 13.2077 15.6029 11.3923C15.6044 11.2994 15.6122 11.2049 15.5793 11.1142C15.6295 11.0543 15.6051 10.9827 15.6048 10.9171C15.6007 10.4685 15.5911 10.0199 15.587 9.5713C15.5841 9.2505 15.6273 9.26811 15.2925 9.26774L15.2921 9.26737ZM16.7314 9.26737C16.6833 9.24151 16.6345 9.27336 16.5876 9.26587C16.3932 9.23513 16.3562 9.32433 16.3621 9.50759C16.3762 9.92246 16.3614 10.3385 16.3636 10.7537C16.3643 10.889 16.3447 11.0265 16.3836 11.1599C16.3477 11.5021 16.3743 11.845 16.3725 12.1879C16.3629 13.7668 16.3569 15.3457 16.3525 16.9246C16.3525 16.9831 16.3111 17.082 16.4065 17.0918C16.4752 17.0985 16.4856 17.0104 16.497 16.949C16.622 16.2819 16.7528 15.6163 16.8711 14.9481C17.0869 13.7263 17.278 12.5005 17.4503 11.2716C17.5401 10.6304 17.6236 9.98804 17.7138 9.34682C17.7304 9.22914 17.716 9.17217 17.5763 9.18941C17.2958 9.22352 17.013 9.24226 16.7314 9.26737ZM6.34112 15.4289C6.39841 15.5949 6.54625 15.689 6.64642 15.8209C6.71627 15.9135 6.81681 15.9986 6.75397 16.1339C6.69003 16.2714 6.5651 16.2984 6.42872 16.2973C6.26017 16.2961 6.09125 16.2973 5.92604 16.2973C6.08756 16.5521 6.73143 17.1926 6.98905 17.3518C7.1125 17.5523 7.32984 17.6532 7.48027 17.8248C7.53497 17.887 7.63292 17.9331 7.59374 18.0392C7.55197 18.1531 7.45883 18.2168 7.34203 18.2296C7.24482 18.2404 7.14577 18.2341 7.04745 18.2348C6.97796 18.2352 6.90885 18.2348 6.82642 18.2348C6.87078 18.3289 6.94248 18.3405 7.00051 18.3667C7.30396 18.5046 7.61407 18.6227 7.9434 18.6815C7.99071 18.6901 8.04948 18.695 8.06648 18.7486C8.08718 18.8131 8.02213 18.8262 7.98553 18.8554C7.96779 18.8693 7.94044 18.8813 7.96372 18.9251C8.09531 18.9143 8.23355 18.9206 8.36439 18.8648C8.63199 18.7677 8.86965 18.6279 9.07627 18.3671C8.90366 18.3791 8.77651 18.3915 8.64936 18.3952C8.53552 18.3986 8.40948 18.387 8.36809 18.2644C8.33001 18.1523 8.43905 18.092 8.51297 18.0302C8.76911 17.8162 9.02563 17.6022 9.23668 17.3399C9.28436 17.2806 9.34756 17.2267 9.35052 17.121C9.22559 17.1491 9.11101 17.1765 8.99569 17.1457C8.85228 17.1071 8.79536 16.9797 8.89737 16.8811C9.19122 16.5971 9.38157 16.2395 9.60667 15.9064C9.71422 15.7475 9.84285 15.7475 9.94116 15.909C10.1419 16.2384 10.3562 16.5558 10.6146 16.8429C10.7192 16.9591 10.6882 17.0558 10.544 17.1169C10.435 17.1633 10.3193 17.145 10.167 17.1349C10.3659 17.3672 10.5122 17.5958 10.7325 17.7596C10.7454 17.8409 10.8135 17.8829 10.8634 17.9335C11.0663 18.1404 11.2755 18.3405 11.4825 18.5432C11.4278 18.6939 11.3135 18.7257 11.1705 18.7093C10.8988 18.6781 10.6342 18.6039 10.3599 18.5481C10.3647 18.5811 10.3622 18.5976 10.3688 18.6036C10.8223 19.0207 11.2563 19.4708 11.9382 19.4693C12.1278 19.4689 12.3174 19.5098 12.507 19.5277C13.3527 19.6076 14.1988 19.6829 15.0489 19.7016C15.1856 19.7046 15.2344 19.6634 15.2426 19.5281C15.261 19.2231 15.2758 18.9161 15.3217 18.6144C15.3601 18.3585 15.3113 18.1681 15.0733 18.0448C15.0101 18.0122 14.9576 17.9578 14.9018 17.9118C14.334 17.4414 13.8694 16.8793 13.4654 16.2628C12.9838 15.5279 12.6105 14.7333 12.228 13.9437C12.0801 13.5978 11.9323 13.2519 11.7844 12.9056C11.8236 12.7804 11.8824 12.6695 12.0284 12.6594C12.1729 12.6493 12.272 12.7336 12.3437 12.8516C12.3821 12.915 12.4124 12.9839 12.4442 13.0514C12.7972 13.7994 13.1328 14.5565 13.5394 15.2771C13.5793 15.348 13.5922 15.4544 13.7046 15.4765C13.7268 15.3828 13.6965 15.3056 13.6787 15.2288C13.4928 14.4208 13.3098 13.612 13.1165 12.8063C12.8042 11.5032 12.4837 10.202 12.1696 8.89934C12.1452 8.79778 12.0975 8.73669 11.9999 8.70034C11.7305 8.60028 11.4998 8.43688 11.2888 8.24088C10.8999 7.87998 10.8926 7.36842 11.2707 6.99028C11.5819 6.67922 11.9685 6.50495 12.3714 6.36367C13.1191 6.10133 13.8905 5.9518 14.6785 5.88471C16.3115 5.74568 17.9252 5.82925 19.5013 6.32357C19.9503 6.46448 20.3769 6.65936 20.7154 7.00677C21.1039 7.40515 21.0943 7.87211 20.6962 8.25399C20.5059 8.43688 20.286 8.5703 20.0483 8.67748C19.9644 8.71496 19.8801 8.74756 19.8539 8.85737C19.7127 9.45063 19.567 10.0428 19.4229 10.6349C19.4018 10.6518 19.387 10.6712 19.3992 10.7005C19.3852 10.7601 19.3712 10.82 19.3571 10.8796C19.329 10.9028 19.3224 10.9313 19.3379 10.9647C19.3301 10.992 19.322 11.0194 19.3142 11.0468C19.285 11.0625 19.2817 11.0857 19.2946 11.1142C19.2895 11.1416 19.2843 11.1693 19.2795 11.1967C19.254 11.2128 19.2447 11.2349 19.2558 11.2641C19.2259 11.3912 19.196 11.5178 19.1664 11.6449C19.1387 11.6633 19.1353 11.6876 19.1501 11.7161C19.1431 11.7423 19.1357 11.7686 19.1287 11.7948C19.0999 11.8109 19.0973 11.8349 19.1087 11.8634C19.1036 11.8907 19.0984 11.9185 19.0932 11.9458C19.067 11.9604 19.0562 11.9811 19.0681 12.011L19.0522 12.0961C19.0041 12.1606 18.9838 12.2321 18.9982 12.3127C18.9801 12.3896 18.962 12.4668 18.9439 12.5436C18.9154 12.5601 18.9095 12.5833 18.9235 12.6125C18.9187 12.6403 18.9143 12.668 18.9095 12.6957C18.8844 12.7134 18.8748 12.7355 18.8907 12.7647C18.884 12.7913 18.8774 12.8179 18.8707 12.8445C18.8226 12.9232 18.8005 13.0083 18.8108 13.1012C18.7813 13.2279 18.7513 13.3546 18.7217 13.4809C18.6944 13.4977 18.6859 13.5202 18.7007 13.5502C18.6955 13.5772 18.6903 13.6042 18.6851 13.6312C18.6378 13.6971 18.6216 13.7702 18.6356 13.8504C18.616 13.9276 18.5961 14.0048 18.5765 14.082C18.5513 14.1 18.5436 14.1221 18.5617 14.1498C18.5547 14.1899 18.5477 14.23 18.5403 14.2701C18.5063 14.2967 18.497 14.3301 18.5125 14.3709C18.5077 14.3998 18.5033 14.4283 18.4985 14.4571C18.456 14.5104 18.4379 14.5703 18.4527 14.6385C18.4438 14.6775 18.4349 14.7161 18.426 14.7551C18.3983 14.7734 18.392 14.7967 18.4105 14.8255C18.4046 14.8529 18.3983 14.8803 18.3924 14.908C18.2656 15.1216 18.2734 15.3637 18.2124 15.638C18.3488 15.5447 18.3725 15.4428 18.4068 15.348C18.415 15.3247 18.419 15.2989 18.432 15.2786C18.7432 14.7914 18.9738 14.2619 19.2233 13.7421C19.3708 13.434 19.4987 13.1151 19.6816 12.8262C19.7544 12.7111 19.8553 12.6279 20.0054 12.6631C20.1522 12.698 20.2135 12.8055 20.2279 12.9483C20.0509 13.2886 19.8949 13.639 19.7489 13.9936C19.7009 14.0872 19.6524 14.1813 19.6048 14.275C19.2595 14.9526 18.9346 15.6407 18.5044 16.2714C18.0169 16.9857 17.492 17.661 16.7661 18.1449C16.6571 18.2176 16.6316 18.3049 16.6452 18.4286C16.6859 18.788 16.7266 19.1477 16.7502 19.5086C16.7609 19.6717 16.8153 19.7095 16.9746 19.7046C18.1256 19.6702 19.2695 19.5461 20.4146 19.4374C20.4874 19.4307 20.5669 19.4333 20.6278 19.3872C20.9483 19.1466 21.3102 18.9615 21.5803 18.6538C21.624 18.6482 21.6491 18.6189 21.6336 18.58C21.6214 18.5492 21.5874 18.5432 21.5645 18.5807C21.3042 18.6287 21.0437 18.6763 20.7835 18.7242C20.752 18.6931 20.7199 18.6905 20.6866 18.7209C20.5986 18.7081 20.5403 18.6643 20.5317 18.5683C20.5927 18.4672 20.6759 18.3862 20.7587 18.3034C20.9361 18.1261 21.1261 17.9605 21.2769 17.757C21.4798 17.5853 21.6243 17.3638 21.8224 17.1379C21.6798 17.1379 21.5766 17.1513 21.478 17.1349C21.3124 17.1071 21.2592 16.9737 21.3723 16.8549C21.6487 16.566 21.8705 16.2388 22.0705 15.894C22.1529 15.7516 22.253 15.7655 22.3558 15.8663C22.3994 15.909 22.4367 15.9607 22.4674 16.0139C22.6393 16.3107 22.8311 16.5914 23.0762 16.8328C23.1239 16.8796 23.18 16.931 23.1494 17.0104C23.1172 17.0933 23.0544 17.1397 22.9649 17.1412C22.8651 17.1431 22.765 17.1416 22.6463 17.1416C22.7029 17.2578 22.748 17.3369 22.8138 17.4024C23.0592 17.6468 23.3168 17.8773 23.5825 18.0984C23.6291 18.137 23.6894 18.1733 23.6646 18.2498C23.6435 18.315 23.5885 18.3461 23.5264 18.3618C23.3992 18.3941 23.2695 18.3768 23.1405 18.3776C23.0721 18.378 22.9986 18.327 22.9217 18.3989C23.1331 18.6058 23.3401 18.8052 23.6421 18.855C23.7219 18.9461 23.8324 18.9547 23.927 18.9188C23.981 18.8981 23.8989 18.8314 23.8971 18.7812C23.9071 18.7726 23.917 18.764 23.9274 18.7554C24.3406 18.6249 24.7516 18.4885 25.1261 18.261C24.9671 18.2385 24.816 18.237 24.6644 18.2389C24.548 18.2404 24.4467 18.2262 24.3972 18.0939C24.3499 17.9672 24.4219 17.8979 24.4981 17.8211C24.6626 17.6558 24.8666 17.5351 25.0144 17.3507C25.3674 17.0592 25.6875 16.7335 25.9887 16.3879C26.0113 16.3617 26.0508 16.3347 26.0298 16.2939C26.008 16.2515 25.9655 16.2759 25.9307 16.2778C25.7958 16.2849 25.6613 16.2913 25.5264 16.2984C25.3874 16.3059 25.2673 16.2688 25.2048 16.1316C25.1427 15.9948 25.2451 15.9131 25.3186 15.8228C25.431 15.6849 25.5888 15.5837 25.648 15.4031C25.6753 15.3794 25.7093 15.3603 25.7296 15.3311C26.0568 14.857 26.3743 14.3762 26.6659 13.8785C26.8832 13.8283 26.9764 13.9741 27.0632 14.1341C27.3888 14.7352 27.6831 15.3566 28.1436 15.8711C28.2109 15.9465 28.2726 16.0218 28.2194 16.1372C28.1661 16.2527 28.0778 16.3074 27.9581 16.3104C27.8124 16.3141 27.6664 16.3111 27.5141 16.3111C27.523 16.3261 27.5315 16.349 27.547 16.3647C27.8475 16.669 28.1469 16.9748 28.4522 17.2739C28.5151 17.3357 28.5517 17.4384 28.6622 17.4407C28.7331 17.5685 28.8148 17.6097 28.9752 17.5673C29.3785 17.4605 29.7673 17.3102 30.1643 17.1855C30.2456 17.16 30.3495 17.1285 30.3698 17.0033C30.4241 16.6713 30.4448 16.3374 30.447 16.0019C30.4541 14.8529 30.3628 13.7162 30.0312 12.6099C30.0353 12.5983 30.0453 12.5856 30.043 12.5754C29.9259 12.0301 29.764 11.4984 29.5614 10.9793C29.5282 10.8935 29.5038 10.8035 29.4398 10.7338C29.4628 10.6652 29.4169 10.6128 29.394 10.5581C29.1478 9.96593 28.8706 9.38954 28.5457 8.83751C28.2818 8.38891 28.0076 7.94706 27.6871 7.53669C27.6424 7.42426 27.5541 7.34331 27.4816 7.25224C26.8899 6.5057 26.2475 5.80751 25.5352 5.1764C25.3541 5.01975 25.1745 4.86085 24.9915 4.70682C24.5576 4.3418 24.1067 4.00038 23.6117 3.72268C23.5885 3.70244 23.5678 3.67883 23.5419 3.66309C22.6859 3.13617 21.7836 2.70669 20.8448 2.35403C20.8167 2.3263 20.7864 2.30831 20.7457 2.3263C20.7247 2.32292 20.7032 2.31993 20.6822 2.31655C20.4246 2.17976 20.1388 2.13104 19.862 2.05834C18.8936 1.8035 17.9115 1.62923 16.9125 1.5599C16.2952 1.50443 15.678 1.50293 15.0607 1.55615C14.5237 1.56739 13.997 1.66933 13.4699 1.75628C12.7295 1.87845 11.9999 2.05197 11.2947 2.31843C11.2296 2.33492 11.162 2.34466 11.1003 2.36902C10.4361 2.63286 9.77373 2.90381 9.14797 3.2531C8.88333 3.40076 8.6039 3.52705 8.374 3.73317C7.99884 3.91793 7.66914 4.17353 7.33797 4.42574C7.05152 4.64386 6.76728 4.8661 6.52038 5.13218C6.20695 5.35517 5.95413 5.64449 5.68875 5.91957C5.19827 6.42813 4.7259 6.95243 4.32302 7.53706C4.00108 7.96018 3.71463 8.40727 3.45036 8.86899C3.10587 9.47049 2.76953 10.0769 2.53741 10.735C2.47642 10.8912 2.40693 11.0449 2.3563 11.2042C2.20919 11.6659 2.04471 12.1223 1.9682 12.6043C1.94602 12.6684 1.91793 12.731 1.90204 12.7969C1.81555 13.1608 1.75419 13.5296 1.70171 13.8995C1.55756 14.9226 1.52392 15.9491 1.61374 16.9793C1.62113 17.0625 1.64959 17.1135 1.73534 17.142C2.13231 17.2746 2.52299 17.4257 2.92181 17.5542C3.12473 17.6194 3.24781 17.552 3.35537 17.3953C3.74679 17.0689 4.09201 16.6968 4.46569 16.2883C4.27497 16.3014 4.1408 16.3171 4.00626 16.3179C3.88835 16.3186 3.77118 16.3055 3.71537 16.1683C3.65882 16.03 3.71315 15.9229 3.80445 15.8307C4.01106 15.6215 4.17628 15.3817 4.32524 15.1299C4.53703 14.7716 4.74844 14.4125 4.94693 14.0468C5.02344 13.9055 5.11769 13.844 5.27145 13.8736C5.39527 14.0659 5.51318 14.2623 5.64439 14.4489C5.87503 14.7764 6.05282 15.143 6.34296 15.4267L6.34112 15.4289ZM22.9705 21.9173C22.9738 21.9461 22.9782 22.0211 22.9908 22.0945C23.1819 23.2132 23.3733 24.3315 23.5663 25.4498C23.6265 25.7999 23.6823 26.1514 23.7566 26.4984C23.8088 26.7428 23.9688 26.8769 24.171 26.8863C24.3987 26.8972 24.5317 26.7926 24.6193 26.5254C24.6892 26.3125 24.7476 26.0955 24.82 25.8834C24.9002 25.6484 24.9394 25.3974 25.0688 25.1811C25.1778 24.999 25.3545 25.0016 25.4565 25.1886C25.5064 25.2804 25.5367 25.3842 25.5689 25.4847C25.6842 25.8467 25.7914 26.2113 25.9122 26.5711C25.9655 26.7293 26.0571 26.8582 26.2471 26.8777C26.5232 26.9062 26.6821 26.7832 26.7439 26.4482C26.9464 25.3505 27.1434 24.2517 27.3389 23.1529C27.411 22.7477 27.4824 22.3419 27.5385 21.9345C27.5903 21.5601 27.3589 21.3349 27.0059 21.399C26.7893 21.4383 26.6821 21.5833 26.6433 21.794C26.5188 22.4682 26.3961 23.1424 26.2648 23.8151C26.2438 23.9234 26.27 24.1078 26.1506 24.116C26.0331 24.1243 26.0283 23.9388 25.9902 23.8331C25.8217 23.3642 25.6609 22.8928 25.4953 22.4232C25.4539 22.3059 25.3877 22.2066 25.248 22.2058C25.1039 22.2051 25.0499 22.319 25.0067 22.4299C24.9479 22.5806 24.9002 22.7354 24.8481 22.8887C24.7162 23.2777 24.5949 23.6708 24.4264 24.0459C24.4072 24.0887 24.3976 24.1569 24.3366 24.1475C24.2771 24.1385 24.2859 24.0707 24.2763 24.0242C24.2416 23.8597 24.2053 23.6952 24.1758 23.5295C24.0697 22.9404 23.9729 22.3494 23.859 21.7617C23.8058 21.4863 23.6062 21.3577 23.3456 21.3963C23.1087 21.4316 22.9683 21.6088 22.9705 21.9169V21.9173ZM4.76766 24.119H4.76877C4.76877 24.4934 4.76951 24.8678 4.76877 25.2422C4.76803 25.6226 4.76323 26.0034 4.76508 26.3837C4.76693 26.7323 4.90664 26.8747 5.24521 26.8754C5.60817 26.8762 5.9715 26.8762 6.33409 26.8679C7.19308 26.8481 7.97814 26.0742 8.0018 25.2017C8.01991 24.541 8.0188 23.8788 8.00069 23.2181C7.97444 22.2613 7.17497 21.4541 6.23504 21.4184C5.88464 21.4053 5.53351 21.4087 5.18311 21.4132C4.87596 21.4173 4.76803 21.5365 4.76766 21.8547C4.76692 22.6095 4.76766 23.3646 4.76766 24.1194V24.119ZM19.1974 24.1415H19.1967C19.1967 23.3864 19.1948 22.6308 19.1982 21.8757C19.1989 21.7156 19.1623 21.5811 19.0267 21.4852C18.8426 21.3551 18.6452 21.3457 18.4486 21.4361C18.2634 21.5211 18.2139 21.6864 18.2154 21.885C18.2205 22.4719 18.2132 23.0588 18.2187 23.6453C18.2198 23.781 18.1847 23.8331 18.0428 23.8301C17.6983 23.823 17.3534 23.8323 17.0086 23.8335C16.7687 23.8342 16.7672 23.8327 16.7672 23.5872C16.7668 23.0131 16.7691 22.4386 16.7672 21.8644C16.7661 21.6002 16.6622 21.4518 16.4523 21.3982C16.0871 21.3053 15.8262 21.4983 15.8195 21.8764C15.8129 22.2632 15.7903 22.6529 15.8228 23.0367C15.8635 23.5145 15.7537 23.9058 15.3564 24.1899C15.3416 24.2003 15.3316 24.2176 15.3176 24.2296C15.1997 24.3311 15.2185 24.4282 15.322 24.5283C15.4466 24.6489 15.5634 24.7779 15.6909 24.8952C15.7966 24.9926 15.821 25.1062 15.8188 25.2463C15.8121 25.6578 15.8062 26.0704 15.8251 26.4812C15.8376 26.7604 16.0494 26.9189 16.334 26.905C16.6112 26.8912 16.7676 26.7248 16.7691 26.4317C16.7709 26.0386 16.7709 25.6451 16.7646 25.2519C16.7628 25.1361 16.7887 25.0829 16.9169 25.0855C17.3046 25.0942 17.6927 25.0938 18.0805 25.0912C18.1928 25.0904 18.2261 25.129 18.2228 25.2452C18.2124 25.6196 18.2128 25.994 18.2132 26.3688C18.2135 26.6948 18.4079 26.9088 18.6973 26.9092C19.0078 26.9092 19.1967 26.709 19.1974 26.3703C19.1993 25.6275 19.1978 24.8847 19.1978 24.1419L19.1974 24.1415ZM19.5663 24.1914C19.5645 24.1914 19.5626 24.1914 19.5608 24.1914C19.5608 24.5594 19.5678 24.9278 19.5589 25.2958C19.5493 25.6975 19.6912 26.0371 19.9322 26.3455C20.3381 26.8649 21.0193 27.0883 21.6565 26.9065C22.3144 26.7188 22.8234 26.1712 22.8662 25.5237C22.9243 24.6459 22.939 23.7637 22.8733 22.8864C22.8082 22.0226 22.0254 21.3649 21.1553 21.393C20.31 21.4203 19.5914 22.1485 19.5682 23.0116C19.5574 23.4043 19.5663 23.7978 19.5663 24.191V24.1914ZM12.2531 24.1621C12.2509 24.1621 12.249 24.1621 12.2468 24.1621C12.2468 24.5241 12.242 24.8862 12.2479 25.2478C12.262 26.1102 12.8456 26.7971 13.682 26.9433C14.286 27.049 14.955 26.7683 15.2289 26.2942C15.4396 25.9291 15.335 25.521 14.9827 25.3299C14.7499 25.2036 14.5499 25.228 14.3436 25.4112C14.1378 25.5941 13.882 25.6518 13.6192 25.536C13.3852 25.433 13.25 25.2377 13.2459 24.9791C13.237 24.4616 13.2352 23.9433 13.2496 23.4257C13.2577 23.1296 13.4248 22.9479 13.7024 22.8553C13.9899 22.7594 14.2376 22.8388 14.4549 23.0307C14.5806 23.1416 14.7129 23.1592 14.8659 23.1128C15.2703 22.9906 15.4396 22.6083 15.2603 22.2066C15.1442 21.9465 14.9443 21.7621 14.7081 21.6201C13.665 20.9931 12.3141 21.731 12.2564 22.9636C12.238 23.362 12.2535 23.7622 12.2535 24.1614L12.2531 24.1621ZM12.0424 22.1238C12.0439 21.6995 11.817 21.4244 11.403 21.3705C11.0685 21.327 10.7754 21.4571 10.4967 21.6268C9.84248 22.0252 9.32058 23.0967 10.0546 23.9852C10.2561 24.2292 10.459 24.4717 10.6593 24.7168C10.7687 24.8509 10.8933 24.9757 10.9668 25.1358C11.0585 25.3359 10.9314 25.5244 10.7151 25.5075C10.6305 25.5008 10.5459 25.4761 10.4638 25.4506C10.2631 25.388 10.0816 25.4153 9.94079 25.5784C9.79701 25.7448 9.78038 25.9426 9.86835 26.1398C10.0317 26.5052 10.3041 26.754 10.6856 26.8709C11.0929 26.9961 11.4899 26.8657 11.726 26.5127C12.1437 25.8883 12.2457 24.9971 11.6514 24.2914C11.3886 23.9792 11.0981 23.6873 10.8892 23.3305C10.8234 23.2181 10.7876 23.0993 10.8682 22.979C10.9532 22.8519 11.0807 22.8459 11.2149 22.8651C11.7504 22.9408 12.0402 22.681 12.0421 22.1234L12.0424 22.1238ZM8.46233 24.0827H8.45125C8.45125 24.8378 8.45125 25.5934 8.45125 26.3485C8.45125 26.5543 8.50632 26.7282 8.69667 26.8372C8.98054 26.9999 9.45956 26.8702 9.45586 26.3466C9.44477 24.9109 9.44773 23.4752 9.4444 22.0394C9.4444 21.9461 9.44366 21.8513 9.42888 21.7599C9.39413 21.5451 9.22337 21.3971 9.00826 21.3832C8.65453 21.3607 8.46899 21.5166 8.46492 21.873C8.45679 22.6095 8.46233 23.3463 8.46233 24.0827ZM14.4604 16.2714C14.5118 16.5562 14.425 16.9141 14.8116 17.0378C14.85 17.0502 14.8848 17.1023 14.9269 17.0674C14.9679 17.0333 14.9321 16.9861 14.9239 16.9452C14.7277 15.9555 14.5687 14.959 14.4002 13.9639C14.1356 12.403 13.9053 10.8365 13.6987 9.26661C13.6824 9.14332 13.6303 9.09685 13.5179 9.07548C13.3124 9.03613 13.1077 8.99191 12.9062 8.93532C12.7772 8.89897 12.7562 8.92408 12.7891 9.05375C12.9384 9.64251 13.0788 10.2339 13.2245 10.8238C13.5652 12.2025 13.889 13.5858 14.1895 14.9739C14.283 15.4053 14.3703 15.8382 14.4604 16.2706V16.2714ZM17.0215 17.1056C17.2418 17.0228 17.4011 16.94 17.4455 16.6851C17.5475 16.0971 17.6743 15.5129 17.8029 14.9301C18.1034 13.5671 18.4401 12.2127 18.7776 10.8586C18.9269 10.2601 19.0662 9.659 19.2111 9.05899C19.2296 8.98292 19.2669 8.89934 19.1279 8.93082C18.894 8.98404 18.6604 9.04063 18.4253 9.08935C18.3403 9.10696 18.3226 9.15831 18.3118 9.23326C18.1906 10.102 18.069 10.9707 17.9441 11.839C17.7596 13.123 17.5223 14.3983 17.3002 15.6759C17.2185 16.1466 17.1176 16.6143 17.0211 17.1053L17.0215 17.1056ZM13.7109 15.5316C13.7153 15.5275 13.7231 15.5234 13.7234 15.5189C13.7234 15.5144 13.7164 15.5095 13.7127 15.505C13.7083 15.5114 13.7035 15.5177 13.699 15.5241C13.7031 15.5267 13.7072 15.529 13.7112 15.5316H13.7109Z" fill="#1B2939"/>
<path d="M22.981 21.9328C22.9788 21.6251 23.1192 21.4475 23.3561 21.4123C23.6167 21.3737 23.8163 21.5026 23.8695 21.7777C23.983 22.3653 24.0802 22.9563 24.1863 23.5454C24.2162 23.7111 24.2525 23.8752 24.2868 24.0401C24.2968 24.0866 24.2876 24.1548 24.3471 24.1634C24.4081 24.1724 24.4177 24.1046 24.4369 24.0619C24.6054 23.6867 24.7267 23.2936 24.8586 22.9046C24.9107 22.7513 24.9584 22.5962 25.0172 22.4459C25.0604 22.335 25.114 22.221 25.2585 22.2218C25.3983 22.2225 25.4644 22.3218 25.5058 22.4391C25.6718 22.9087 25.8322 23.3806 26.0007 23.849C26.0388 23.9547 26.0436 24.1402 26.1611 24.132C26.2805 24.1237 26.2543 23.939 26.2754 23.831C26.4066 23.1583 26.5293 22.4837 26.6538 21.8099C26.6927 21.5993 26.7998 21.4542 27.0164 21.4149C27.3694 21.3508 27.6012 21.576 27.549 21.9504C27.4925 22.3582 27.4215 22.7637 27.3495 23.1688C27.1536 24.2676 26.9569 25.3664 26.7544 26.4641C26.6927 26.7992 26.5337 26.9221 26.2576 26.8936C26.0676 26.8741 25.976 26.7452 25.9227 26.5871C25.8019 26.2273 25.6947 25.8626 25.5794 25.5006C25.5472 25.3998 25.5169 25.2964 25.467 25.2045C25.365 25.0175 25.1883 25.0145 25.0793 25.197C24.9499 25.4129 24.9107 25.664 24.8305 25.8994C24.7585 26.1115 24.6997 26.3285 24.6298 26.5413C24.5422 26.8085 24.4092 26.9127 24.1815 26.9022C23.9793 26.8929 23.8193 26.7583 23.7672 26.5144C23.6929 26.1673 23.6374 25.8158 23.5768 25.4658C23.3839 24.3475 23.1924 23.2291 23.0013 22.1105C22.9887 22.037 22.9843 21.9621 22.981 21.9332V21.9328Z" fill="#F4F5F6"/>
<path d="M4.77807 24.134C4.77807 23.3792 4.7777 22.6241 4.77807 21.8693C4.77807 21.5511 4.88636 21.432 5.19351 21.4278C5.54428 21.4233 5.89541 21.42 6.24544 21.4331C7.18537 21.4683 7.98484 22.2759 8.01109 23.2327C8.0292 23.8934 8.02994 24.5556 8.0122 25.2164C7.98854 26.0888 7.20348 26.8627 6.34449 26.8826C5.98153 26.8912 5.61857 26.8908 5.25561 26.8901C4.91704 26.8893 4.77733 26.7473 4.77548 26.3984C4.77326 26.018 4.77807 25.6372 4.77918 25.2568C4.77991 24.8824 4.77918 24.508 4.77918 24.1336H4.77807V24.134ZM5.78638 24.2079H5.78933C5.78933 24.5946 5.78933 24.981 5.78933 25.3678C5.78933 25.4502 5.78194 25.5357 5.90502 25.533C6.10166 25.5293 6.29903 25.5533 6.49456 25.521C6.76401 25.4764 6.98763 25.2523 7.00167 24.9795C7.02754 24.4751 7.03124 23.9695 7.00056 23.4651C6.98208 23.1611 6.76992 22.943 6.47201 22.9067C6.29607 22.8853 6.1157 22.9029 5.93829 22.8883C5.81003 22.8778 5.78231 22.9288 5.78416 23.0479C5.79007 23.4347 5.78638 23.8211 5.78638 24.2079Z" fill="#F4F5F6"/>
<path d="M19.2078 24.1566C19.2078 24.8993 19.2089 25.6421 19.2075 26.3849C19.2067 26.7237 19.0179 26.9242 18.7074 26.9238C18.4183 26.9238 18.2236 26.7095 18.2232 26.3834C18.2228 26.009 18.2221 25.6343 18.2328 25.2599C18.2361 25.1437 18.2029 25.1051 18.0905 25.1058C17.7028 25.1085 17.3147 25.1088 16.9269 25.1002C16.7987 25.0976 16.7728 25.1508 16.7747 25.2666C16.7809 25.6598 16.7809 26.0533 16.7791 26.4464C16.7776 26.7395 16.6213 26.9059 16.3441 26.9197C16.0598 26.9336 15.848 26.7751 15.8351 26.4959C15.8166 26.0847 15.8225 25.6725 15.8288 25.261C15.831 25.1208 15.8066 25.0073 15.7009 24.9098C15.5734 24.7925 15.4566 24.6636 15.3321 24.5429C15.2286 24.4425 15.2097 24.3458 15.3276 24.2443C15.3417 24.2323 15.3516 24.215 15.3664 24.2045C15.7638 23.9205 15.8735 23.5292 15.8329 23.0514C15.8 22.6672 15.8229 22.2779 15.8296 21.8911C15.8362 21.513 16.0972 21.3196 16.4623 21.4129C16.6723 21.4665 16.7765 21.6149 16.7772 21.8791C16.7795 22.4532 16.7772 23.0278 16.7772 23.6019C16.7772 23.8474 16.7787 23.8489 17.0186 23.8481C17.3635 23.8474 17.7083 23.8376 18.0528 23.8448C18.1947 23.8478 18.2298 23.7957 18.2287 23.66C18.2232 23.0731 18.2306 22.4866 18.2254 21.8997C18.2235 21.7011 18.2734 21.5358 18.4586 21.4507C18.6553 21.3604 18.853 21.3698 19.0367 21.4998C19.1724 21.5958 19.2086 21.7303 19.2082 21.8903C19.2052 22.6455 19.2067 23.401 19.2067 24.1562H19.2075L19.2078 24.1566Z" fill="#F4F5F6"/>
<path d="M19.5767 24.2064C19.5767 23.8132 19.5678 23.4201 19.5785 23.027C19.6018 22.1635 20.3204 21.4357 21.1657 21.4083C22.0357 21.3802 22.8186 22.0379 22.8836 22.9018C22.9494 23.7791 22.935 24.6613 22.8766 25.539C22.8337 26.1866 22.3244 26.7342 21.6669 26.9219C21.0297 27.1037 20.3485 26.8803 19.9426 26.3609C19.7016 26.0525 19.5597 25.7129 19.5693 25.3112C19.5782 24.9431 19.5712 24.5747 19.5712 24.2067C19.573 24.2067 19.5748 24.2067 19.5767 24.2067V24.2064ZM21.8761 24.1966H21.8783C21.8783 23.9155 21.8835 23.6345 21.8768 23.3538C21.8687 23.0097 21.6295 22.7879 21.2758 22.7849C20.8966 22.7815 20.6072 23.0004 20.6002 23.329C20.5876 23.9095 20.5865 24.4908 20.6002 25.0709C20.6087 25.4303 20.8811 25.6619 21.2381 25.6533C21.607 25.644 21.8672 25.3974 21.8746 25.0402C21.8801 24.7591 21.8757 24.4781 21.8757 24.1974L21.8761 24.1966Z" fill="#F4F5F6"/>
<path d="M12.2634 24.1771C12.2634 23.7776 12.2475 23.3778 12.2663 22.9794C12.324 21.7464 13.6749 21.0085 14.718 21.6358C14.9542 21.7779 15.1541 21.9623 15.2702 22.2224C15.4495 22.6241 15.2802 23.0064 14.8758 23.1285C14.7228 23.1746 14.5908 23.1574 14.4648 23.0465C14.2471 22.8546 13.9998 22.7751 13.7123 22.8711C13.4347 22.9636 13.2676 23.1454 13.2595 23.4415C13.2451 23.959 13.2473 24.477 13.2558 24.9949C13.2602 25.2535 13.3951 25.4484 13.6291 25.5518C13.8915 25.6676 14.1477 25.6103 14.3535 25.427C14.5594 25.2437 14.7598 25.2194 14.9926 25.3457C15.3449 25.5368 15.4498 25.9449 15.2388 26.3099C14.9649 26.784 14.2959 27.0647 13.6919 26.959C12.8555 26.8129 12.2722 26.1256 12.2578 25.2636C12.2519 24.9019 12.2567 24.5399 12.2567 24.1779C12.2589 24.1779 12.2608 24.1779 12.263 24.1779L12.2634 24.1771Z" fill="#F4F5F6"/>
<path d="M28.6716 17.4583C28.682 17.4227 28.7005 17.3875 28.7012 17.3515C28.7223 16.5102 28.7215 15.6737 28.461 14.8567C28.2592 14.2237 28.0193 13.6169 27.6042 13.0934C27.49 12.9495 27.3388 12.8558 27.1869 12.7625C27.0269 12.6643 26.9951 12.5549 27.0856 12.3896C27.1714 12.2326 27.2948 12.1134 27.4504 12.0298C27.6493 11.923 27.8906 12.0066 28.0145 12.2284C28.1239 12.4241 28.2011 12.6347 28.2725 12.8472C28.3172 12.9802 28.3778 13.0439 28.5434 13.0091C29.0483 12.903 29.5473 12.779 30.0403 12.6276C30.3722 13.7339 30.4635 14.8705 30.4561 16.0196C30.4539 16.3554 30.4332 16.6893 30.3789 17.021C30.3586 17.1461 30.2547 17.1772 30.1734 17.2031C29.7764 17.3279 29.388 17.4785 28.9843 17.585C28.8239 17.6273 28.7422 17.5861 28.6713 17.4583H28.6716Z" fill="#76D1C8"/>
<path d="M1.97649 12.6223C2.42853 12.8045 2.89684 12.93 3.37069 13.0361C3.54699 13.0754 3.64937 12.9911 3.71516 12.8333C3.8035 12.6212 3.89184 12.4087 3.99164 12.2022C4.09032 11.998 4.32651 11.9084 4.52351 12.0122C4.69095 12.1003 4.84619 12.2075 4.93231 12.4005C4.99921 12.5507 4.97999 12.6632 4.84878 12.7359C4.25924 13.0627 4.00236 13.6376 3.76839 14.2237C3.40543 15.1333 3.26497 16.0829 3.32078 17.0618C3.32744 17.1795 3.34925 17.2964 3.36403 17.4137C3.25684 17.5704 3.13339 17.6382 2.93047 17.5726C2.53166 17.4441 2.14098 17.2931 1.74401 17.1604C1.65826 17.1319 1.6298 17.0809 1.6224 16.9977C1.53259 15.9675 1.56622 14.941 1.71037 13.9179C1.76249 13.5476 1.82385 13.1789 1.91071 12.8153C1.92623 12.7498 1.95432 12.6868 1.97686 12.6227L1.97649 12.6223Z" fill="#76D1C8"/>
<path d="M12.0524 22.1388C12.0506 22.6961 11.7608 22.9562 11.2252 22.8805C11.0907 22.8614 10.9636 22.8674 10.8785 22.9944C10.798 23.1147 10.8338 23.2335 10.8996 23.3459C11.1084 23.7027 11.399 23.9946 11.6618 24.3068C12.2561 25.0129 12.1541 25.9041 11.7364 26.5281C11.5002 26.8811 11.1033 27.0115 10.696 26.8864C10.3145 26.7691 10.0421 26.5206 9.87874 26.1552C9.79077 25.9584 9.80703 25.7606 9.95118 25.5938C10.092 25.4311 10.2735 25.4038 10.4742 25.466C10.5562 25.4915 10.6405 25.5162 10.7255 25.523C10.9421 25.5398 11.0693 25.3513 10.9772 25.1512C10.9037 24.9908 10.7795 24.8664 10.6697 24.7322C10.4698 24.4871 10.2665 24.2446 10.065 24.0006C9.33097 23.1117 9.8525 22.0406 10.5071 21.6422C10.7858 21.4725 11.0792 21.3424 11.4134 21.3859C11.827 21.4399 12.0539 21.7149 12.0528 22.1392L12.0524 22.1388Z" fill="#F4F5F6"/>
<path d="M8.47251 24.0978C8.47251 23.3614 8.46697 22.6246 8.4751 21.8882C8.47917 21.5318 8.66471 21.3759 9.01844 21.3984C9.23318 21.4122 9.40394 21.5603 9.43906 21.775C9.45384 21.8668 9.45421 21.9613 9.45458 22.0546C9.45828 23.4903 9.45495 24.926 9.46604 26.3618C9.4701 26.8853 8.99109 27.015 8.70685 26.8524C8.5165 26.7433 8.46106 26.5694 8.46143 26.3637C8.4618 25.6085 8.46143 24.853 8.46143 24.0978H8.47251Z" fill="#F4F5F6"/>
<path d="M5.28016 13.8914C5.48677 13.7989 5.70633 13.7861 5.92625 13.7914C6.07557 13.7951 6.17278 13.7415 6.22452 13.5984C6.24559 13.5403 6.26925 13.4792 6.30695 13.4316C6.51171 13.1734 6.60449 12.9043 6.54239 12.5561C6.48806 12.2533 6.86285 11.7268 7.13821 11.6102C7.23135 11.5709 7.30786 11.6143 7.38216 11.6529C7.61686 11.774 7.79761 11.9786 8.04155 12.0903C8.13617 12.1334 8.06225 12.2125 8.02307 12.2601C7.73699 12.6101 7.48676 12.9841 7.25279 13.372C6.88244 13.9866 6.60079 14.6387 6.39787 15.3272C6.38604 15.3676 6.39418 15.4164 6.3513 15.4441C6.06116 15.1604 5.88337 14.7943 5.65273 14.4663C5.52152 14.2797 5.40361 14.0833 5.27979 13.8911L5.28016 13.8914Z" fill="#76D1C8"/>
<path d="M25.6569 15.4203C25.5531 15.1283 25.4544 14.8341 25.3443 14.5448C25.0545 13.7837 24.6246 13.1038 24.1482 12.4517C24.1227 12.4169 24.0987 12.3805 24.0706 12.3479C23.966 12.2261 23.9493 12.1437 24.1249 12.0541C24.2923 11.9687 24.4317 11.8281 24.5858 11.7153C24.7651 11.5845 24.8645 11.5883 25.0297 11.7322C25.2005 11.8806 25.318 12.0714 25.4185 12.2711C25.4906 12.4139 25.5043 12.5661 25.4485 12.7227C25.4049 12.8453 25.4112 12.9678 25.4799 13.0825C25.5915 13.2684 25.7002 13.4565 25.8155 13.6398C25.882 13.7454 25.9756 13.7923 26.1086 13.7953C26.2997 13.7994 26.5008 13.7766 26.6741 13.8954C26.3829 14.393 26.065 14.8739 25.7379 15.348C25.7179 15.3768 25.6839 15.3959 25.6562 15.4199L25.6569 15.4203Z" fill="#76D1C8"/>
<path d="M4.33151 7.55469C4.4387 7.70572 4.61759 7.77955 4.71739 7.9437C4.87004 8.19404 4.88778 8.33345 4.69373 8.54557C4.1297 9.16206 3.74345 9.89361 3.33983 10.6173C3.19531 10.8766 3.00459 11.0052 2.68155 10.7976C2.63756 10.7694 2.59617 10.7522 2.5459 10.7526C2.77802 10.0941 3.11437 9.48811 3.45885 8.88661C3.72313 8.42527 4.00958 7.9778 4.33151 7.55469Z" fill="#76D1C8"/>
<path d="M29.4486 10.7512C29.381 10.7433 29.3344 10.7861 29.2812 10.8179C29.0302 10.9686 28.8476 10.9169 28.6953 10.6575C28.4913 10.3094 28.3261 9.93984 28.111 9.59693C27.8666 9.20679 27.588 8.84477 27.3026 8.48611C27.1426 8.28486 27.157 8.08774 27.3348 7.89923C27.4486 7.77818 27.575 7.66912 27.6955 7.55444C28.016 7.96481 28.2902 8.40704 28.5541 8.85526C28.879 9.40729 29.1562 9.98369 29.4024 10.5758C29.4249 10.6305 29.4712 10.683 29.4482 10.7516L29.4486 10.7512Z" fill="#76D1C8"/>
<path d="M8.38243 3.75098C8.41606 4.28802 8.15548 4.6804 7.77182 5.00645C7.60735 5.14624 7.43363 5.27665 7.25325 5.39433C6.97937 5.5731 6.63785 5.45205 6.52881 5.14998C6.77571 4.88427 7.05995 4.66204 7.3464 4.44392C7.6772 4.1917 8.0069 3.93611 8.38243 3.75135V3.75098Z" fill="#76D1C8"/>
<path d="M25.544 5.19371C25.4756 5.2102 25.4275 5.25667 25.3762 5.3024C25.1086 5.54075 24.8528 5.54712 24.5867 5.31326C24.383 5.13412 24.1867 4.94637 23.992 4.75748C23.7639 4.53637 23.6489 4.26317 23.6412 3.94236C23.6397 3.87491 23.6271 3.80745 23.6201 3.73999C24.115 4.01732 24.566 4.35873 24.9999 4.72413C25.1832 4.87816 25.3625 5.03706 25.5436 5.19371H25.544Z" fill="#76D1C8"/>
<path d="M6.99918 17.3671C7.48707 17.0729 7.93578 17.3 8.02264 17.873C8.05369 18.0765 8.04371 18.2819 8.08326 18.4854C8.11985 18.6739 8.21003 18.7998 8.37488 18.88C8.24367 18.9358 8.1058 18.9295 7.97422 18.9403C7.95093 18.8961 7.97828 18.8845 7.99603 18.8706C8.03262 18.8418 8.09767 18.8286 8.07697 18.7638C8.05997 18.7102 8.0012 18.7053 7.95389 18.6967C7.62457 18.6379 7.31446 18.5202 7.01101 18.3819C6.95298 18.3557 6.88127 18.3441 6.83691 18.25C6.91934 18.25 6.98846 18.2504 7.05795 18.25C7.15627 18.2493 7.25532 18.2556 7.35253 18.2448C7.46933 18.232 7.56247 18.1683 7.60424 18.0544C7.64341 17.9479 7.5451 17.9022 7.49077 17.84C7.34033 17.6684 7.12337 17.5676 6.99955 17.3671H6.99918Z" fill="#76D1C8"/>
<path d="M12.2387 13.9592C12.2017 13.9802 12.1607 13.9967 12.1281 14.0233C11.886 14.2235 11.6207 14.2523 11.3778 14.1024C11.196 13.99 11.0629 13.6935 11.1021 13.4878C11.1627 13.1685 11.339 12.9912 11.6488 12.9391C11.6972 12.9309 11.7463 12.9271 11.7948 12.9211C11.9426 13.2671 12.0904 13.613 12.2383 13.9592H12.2387Z" fill="#76D1C8"/>
<path d="M20.237 12.9642C20.5818 12.9717 20.7648 13.0905 20.8664 13.372C20.9477 13.5972 20.8694 13.8708 20.6738 14.0432C20.4754 14.2182 20.183 14.2467 19.9335 14.1301C19.8655 14.0983 19.8466 14.0027 19.7583 14.0095C19.9043 13.6546 20.0603 13.3042 20.2373 12.9639L20.237 12.9642Z" fill="#76D1C8"/>
<path d="M23.9365 18.772C23.9487 18.4819 23.9546 18.1892 23.9842 17.9025C24.0289 17.47 24.3172 17.1571 24.8121 17.3089C24.882 17.3302 24.953 17.3482 25.0236 17.3677C24.8757 17.5517 24.6717 17.6724 24.5072 17.838C24.4311 17.9149 24.359 17.9842 24.4063 18.1109C24.4558 18.2432 24.5575 18.2574 24.6735 18.2559C24.8247 18.254 24.9759 18.2555 25.1352 18.278C24.7604 18.5055 24.3498 18.6419 23.9365 18.7723V18.772Z" fill="#76D1C8"/>
<path d="M15.0692 1.57386C15.0023 1.80772 14.7861 1.81109 14.6205 1.82346C13.5926 1.90066 12.5854 2.09291 11.5871 2.34363C11.4928 2.36724 11.3964 2.3901 11.3032 2.33576C12.0084 2.06968 12.7381 1.89616 13.4784 1.77361C14.0055 1.68667 14.5322 1.58473 15.0692 1.57349V1.57386Z" fill="#76D1C8"/>
<path d="M20.691 2.33429C20.6355 2.41899 20.5612 2.38151 20.4914 2.36465C19.8586 2.21099 19.2273 2.05059 18.5808 1.96515C18.1306 1.90556 17.6801 1.85197 17.2288 1.80062C17.0813 1.78376 16.9745 1.72192 16.9209 1.57764C17.92 1.64697 18.9024 1.82124 19.8704 2.07608C20.1473 2.14878 20.433 2.1975 20.6906 2.33429H20.691Z" fill="#76D1C8"/>
<path d="M16.7412 9.2829C16.6765 9.66592 16.7268 10.0504 16.7279 10.4342C16.7279 10.5088 16.7249 10.5837 16.7294 10.6579C16.7449 10.9165 16.6898 11.126 16.3934 11.1755C16.3546 11.0417 16.3742 10.9045 16.3734 10.7689C16.3712 10.3536 16.386 9.93762 16.372 9.52275C16.3657 9.33949 16.4026 9.24992 16.5974 9.28103C16.6444 9.28852 16.6932 9.25667 16.7412 9.28253V9.2829Z" fill="#76D1C8"/>
<path d="M15.589 11.13C15.3184 11.1056 15.2959 11.085 15.2959 10.8171C15.2959 10.3059 15.3 9.79471 15.3022 9.28352C15.6367 9.2839 15.5934 9.26628 15.5964 9.58709C15.6005 10.0357 15.6101 10.4843 15.6141 10.9329C15.6149 10.9985 15.6389 11.07 15.5886 11.13H15.589Z" fill="#76D1C8"/>
<path d="M10.7432 17.7751C10.9572 17.6514 11.129 17.7496 11.2909 17.8857C11.5016 18.0626 11.5896 18.3609 11.4931 18.5587C11.2861 18.356 11.0769 18.1559 10.874 17.949C10.8245 17.8984 10.7561 17.8564 10.7432 17.7751Z" fill="#76D1C8"/>
<path d="M20.5411 18.5846C20.4232 18.2271 20.7244 17.7717 21.0863 17.7631C21.1528 17.7616 21.2194 17.7699 21.2859 17.7736C21.1351 17.9771 20.9455 18.1428 20.7677 18.32C20.6849 18.4025 20.6021 18.4838 20.5407 18.585L20.5411 18.5846Z" fill="#76D1C8"/>
<path d="M23.6517 18.8721C23.7367 18.8473 23.8218 18.8226 23.9064 18.7979C23.9082 18.8481 23.9903 18.9148 23.9363 18.9354C23.8417 18.9717 23.7312 18.9631 23.6514 18.8717L23.6517 18.8721Z" fill="#76D1C8"/>
<path d="M13.7207 15.5466C13.7166 15.544 13.7126 15.5418 13.7085 15.5391C13.7129 15.5328 13.7177 15.5264 13.7222 15.52C13.7262 15.5245 13.7333 15.5294 13.7329 15.5339C13.7329 15.5384 13.7248 15.5421 13.7203 15.5466H13.7207Z" fill="#F4F5F6"/>
<path d="M21.1604 4.18782C21.5031 4.20318 21.7311 4.34822 21.9229 4.54647C22.059 4.68663 22.0194 4.85565 21.9292 5.01306C21.6838 5.44179 21.6816 5.44554 22.0774 5.73336C22.4655 6.01593 22.8584 6.29139 23.2513 6.56722C23.4942 6.73774 23.5773 7.02256 23.4376 7.22643C23.2439 7.50901 22.9686 7.57496 22.7039 7.39358C22.3077 7.12187 21.9167 6.84155 21.5197 6.57059C21.3478 6.45329 21.2835 6.24342 21.1087 6.12349C20.9398 6.00769 20.7539 5.92561 20.5857 5.81168C20.4371 5.71087 20.365 5.55947 20.4271 5.39719C20.5576 5.05503 20.7021 4.71849 20.8718 4.39431C20.9427 4.25865 21.0492 4.17095 21.1601 4.18819L21.1604 4.18782Z" fill="#76D1C8"/>
<path d="M10.7728 4.19571C10.9668 4.18409 11.0818 4.25942 11.1498 4.42694C11.2622 4.70352 11.383 4.97635 11.5054 5.24843C11.6351 5.53775 11.5956 5.7094 11.318 5.85218C11.0167 6.00734 10.7436 6.18348 10.5673 6.48816C10.5355 6.54288 10.4664 6.57698 10.4113 6.61633C10.0443 6.87642 9.67947 7.13951 9.30764 7.39285C9.07367 7.5525 8.80533 7.51203 8.64492 7.31003C8.43165 7.04132 8.48266 6.77711 8.7802 6.56686C9.21339 6.26068 9.64436 5.9515 10.0742 5.64044C10.2697 5.49878 10.2916 5.38785 10.1518 5.18322C9.81142 4.68366 9.97147 4.51989 10.4387 4.28753C10.5466 4.23394 10.6601 4.17098 10.7721 4.19534L10.7728 4.19571Z" fill="#76D1C8"/>
<path d="M11.4894 9.59869C10.9576 9.89213 10.4671 10.235 9.96477 10.5573C9.60736 10.7867 9.27618 11.0562 8.95092 11.3305C8.84152 11.4227 8.76907 11.4433 8.66521 11.3125C8.57798 11.2031 8.45971 11.1184 8.3795 10.9981C8.19358 10.7192 8.24422 10.5169 8.54139 10.3565C8.59498 10.3276 8.65449 10.3014 8.69589 10.2583C8.90435 10.042 8.90694 9.96746 8.73137 9.71112C8.69626 9.66015 8.66078 9.60956 8.62345 9.56009C8.47671 9.36596 8.47892 9.15834 8.63121 8.98445C8.78127 8.8128 8.99491 8.7817 9.19487 8.90537C9.42292 9.04666 9.62917 9.2153 9.76482 9.45253C9.8465 9.59532 9.95369 9.63991 10.1134 9.63542C10.5188 9.62417 10.9228 9.57283 11.3294 9.59007C11.3826 9.59232 11.4362 9.59532 11.4894 9.59794V9.59869Z" fill="#76D1C8"/>
<path d="M20.5068 9.55789C20.8428 9.57663 21.1481 9.59312 21.4534 9.61111C21.5144 9.61486 21.5754 9.62348 21.636 9.63097C21.9432 9.6677 22.1982 9.63622 22.3738 9.3068C22.4872 9.09393 22.7101 8.94215 22.9511 8.86495C23.0993 8.81735 23.2497 8.81023 23.3702 8.95752C23.4959 9.11154 23.5454 9.27194 23.4527 9.45521C23.4083 9.5429 23.3488 9.62348 23.29 9.70293C23.096 9.96526 23.1315 10.156 23.4168 10.3235C23.493 10.3681 23.5554 10.4244 23.6194 10.4824C23.7631 10.6136 23.7506 10.7729 23.6877 10.928C23.6027 11.1383 23.4035 11.2488 23.2486 11.3973C23.2006 11.4433 23.1603 11.4014 23.1208 11.3695C22.6062 10.9569 22.0821 10.5566 21.5259 10.2036C21.2609 10.0353 20.9822 9.88956 20.7098 9.73403C20.6425 9.69543 20.5656 9.66957 20.5068 9.55827V9.55789Z" fill="#76D1C8"/>
<path d="M22.934 14.5746C22.4827 14.5723 22.0772 14.1541 22.1016 13.6868C22.1242 13.2505 22.4343 12.9117 22.9495 12.9039C23.3775 12.8975 23.7922 13.3349 23.7808 13.749C23.7679 14.2246 23.4067 14.5768 22.934 14.5746Z" fill="#76D1C8"/>
<path d="M9.8974 13.7228C9.89998 14.1815 9.48712 14.5746 9.00182 14.5754C8.5727 14.5761 8.24448 14.2257 8.2393 13.7614C8.2345 13.3034 8.61077 12.893 9.06096 12.9035C9.57066 12.9151 9.90664 13.3094 9.8974 13.7228Z" fill="#76D1C8"/>
<path d="M15.9636 4.30661C15.7733 4.30661 15.5825 4.30623 15.3922 4.30661C15.2133 4.30736 15.0924 4.22753 15.0222 4.05626C14.9608 3.90673 14.9498 3.75383 14.9653 3.5983C14.9819 3.43153 15.1187 3.30523 15.2924 3.30336C15.747 3.29774 16.202 3.29549 16.6566 3.30111C16.8658 3.30373 17.003 3.478 16.9834 3.73659C16.9568 4.09037 16.861 4.33622 16.4245 4.30848C16.2715 4.29874 16.1174 4.30698 15.9636 4.30698V4.30661Z" fill="#76D1C8"/>
<path d="M8.61035 15.8305C8.61035 16.245 8.27658 16.5695 7.84931 16.5695C7.46897 16.5695 7.16848 16.2694 7.167 15.8875C7.16552 15.4445 7.49041 15.099 7.90623 15.1016C8.30874 15.1038 8.60961 15.4156 8.60998 15.8305H8.61035Z" fill="#76D1C8"/>
<path d="M24.1158 16.5702C23.7066 16.5717 23.4191 16.2726 23.418 15.8458C23.4172 15.4249 23.7236 15.1022 24.1265 15.1003C24.4976 15.0985 24.8735 15.4691 24.8561 15.8499C24.8388 16.231 24.5579 16.5841 24.1154 16.5698L24.1158 16.5702Z" fill="#76D1C8"/>
<path d="M17.9517 4.0788C17.952 3.66318 18.1209 3.50428 18.5242 3.56612C18.8151 3.61071 19.1041 3.67293 19.3898 3.74451C19.6637 3.81309 19.7779 4.02596 19.7118 4.30141C19.6305 4.63983 19.4656 4.75713 19.1655 4.70204C18.8938 4.65257 18.6196 4.61771 18.3479 4.56787C18.0611 4.5154 17.9513 4.37412 17.9517 4.07842V4.0788Z" fill="#76D1C8"/>
<path d="M13.4984 3.55745C13.7889 3.55333 13.9597 3.70624 13.9996 3.93709C14.0524 4.24215 13.9689 4.46289 13.7453 4.5251C13.3964 4.62179 13.0386 4.68138 12.6793 4.72748C12.4945 4.75109 12.3884 4.64803 12.3249 4.4925C12.2923 4.41305 12.2742 4.32498 12.2661 4.23916C12.2376 3.93372 12.3078 3.82879 12.601 3.75795C12.9229 3.67963 13.2478 3.61329 13.4988 3.55783L13.4984 3.55745Z" fill="#76D1C8"/>
<path d="M10.7805 15.9679C10.4227 15.9668 10.1548 15.6808 10.1563 15.302C10.1577 14.9171 10.4752 14.5846 10.8423 14.5828C11.2185 14.5809 11.5261 14.9036 11.5205 15.2945C11.5161 15.6306 11.1439 15.969 10.7805 15.9679Z" fill="#76D1C8"/>
<path d="M21.1529 14.6053C21.5251 14.6053 21.8736 14.9497 21.8692 15.3136C21.8651 15.664 21.5502 15.9714 21.1969 15.9691C20.8187 15.9669 20.5083 15.6352 20.5035 15.2451C20.4998 14.949 20.7796 14.5667 21.1529 14.605V14.6053Z" fill="#76D1C8"/>
<path d="M20.5027 16.8328C20.5027 17.1683 20.2255 17.4306 19.8747 17.4272C19.5421 17.4239 19.2135 17.0824 19.2168 16.7433C19.2201 16.3734 19.4759 16.111 19.8311 16.1133C20.2155 16.1155 20.5027 16.4232 20.5031 16.8328H20.5027Z" fill="#76D1C8"/>
<path d="M12.7822 16.7498C12.7818 17.1155 12.4599 17.4277 12.0866 17.4247C11.7484 17.4221 11.5322 17.183 11.5218 16.8236C11.5089 16.3652 11.8807 16.1213 12.2167 16.116C12.5305 16.1112 12.7822 16.4009 12.7818 16.7498H12.7822Z" fill="#76D1C8"/>
<path d="M6.35093 8.53446C6.34613 8.41529 6.3927 8.3126 6.46995 8.22977C6.64293 8.04501 6.83032 7.87375 7.03472 7.72609C7.20548 7.60279 7.39989 7.6309 7.53 7.78118C7.69263 7.96894 7.73144 8.23127 7.60023 8.37856C7.41505 8.58618 7.21879 8.78481 6.99591 8.95083C6.88244 9.03553 6.74605 9.06925 6.61484 8.99243C6.44444 8.89274 6.34391 8.74321 6.35093 8.53409V8.53446Z" fill="#76D1C8"/>
<path d="M21.041 12.4459C20.6721 12.441 20.4237 12.1787 20.4318 11.8021C20.4392 11.4524 20.7057 11.1972 21.0546 11.2065C21.3928 11.2152 21.6534 11.5172 21.6497 11.8853C21.6468 12.163 21.3866 12.4815 21.041 12.4459Z" fill="#76D1C8"/>
<path d="M24.3459 8.12332C24.3326 7.90933 24.455 7.77291 24.6246 7.67997C24.7773 7.5964 24.9026 7.67622 25.0245 7.77741C25.2101 7.93069 25.4015 8.07348 25.5416 8.2766C25.6795 8.47635 25.6743 8.74918 25.5158 8.90771C25.3553 9.06811 25.1373 9.08123 24.9355 8.91183C24.7518 8.75743 24.5854 8.58091 24.418 8.40739C24.3452 8.33207 24.3382 8.22825 24.3456 8.12332H24.3459Z" fill="#76D1C8"/>
<path d="M10.9167 12.4443C10.5578 12.4859 10.3623 12.1385 10.3501 11.8484C10.3357 11.5052 10.641 11.202 10.9788 11.2061C11.3163 11.2102 11.5606 11.4737 11.5621 11.8353C11.5635 12.1895 11.2937 12.444 10.9167 12.4443Z" fill="#76D1C8"/>
<path d="M25.7866 10.3216C25.7866 10.0008 25.9999 9.78341 26.3181 9.78078C26.6404 9.77779 26.9287 10.0754 26.9243 10.4066C26.9202 10.7128 26.6693 10.9782 26.3821 10.9797C26.0624 10.9815 25.787 10.6772 25.787 10.3216H25.7866Z" fill="#76D1C8"/>
<path d="M5.09474 10.4226C5.09252 10.0924 5.3908 9.7862 5.7168 9.78395C6.01139 9.78207 6.23537 10.0223 6.23722 10.3427C6.23907 10.6403 5.90087 10.9738 5.59483 10.9768C5.3106 10.9795 5.09696 10.7426 5.09474 10.4226Z" fill="#76D1C8"/>
<path d="M12.2677 18.8428C12.2725 18.5733 12.4477 18.4021 12.7157 18.4058C12.9674 18.4092 13.1843 18.6209 13.1854 18.8645C13.1866 19.1179 12.9537 19.3352 12.6843 19.3322C12.4266 19.3292 12.2625 19.1366 12.2677 18.8432V18.8428Z" fill="#76D1C8"/>
<path d="M19.7724 18.8717C19.7694 19.1153 19.5588 19.3405 19.3418 19.333C19.0742 19.3233 18.9056 19.1404 18.9082 18.8623C18.9105 18.591 19.0971 18.401 19.3588 18.4036C19.6042 18.4062 19.7757 18.6003 19.7724 18.8721V18.8717Z" fill="#76D1C8"/>
<path d="M5.78648 24.2079C5.78648 23.8211 5.79018 23.4343 5.78426 23.0479C5.78242 22.9291 5.81014 22.8778 5.9384 22.8883C6.11581 22.9029 6.29618 22.8853 6.47212 22.9067C6.77003 22.943 6.98219 23.1611 7.00067 23.4651C7.03135 23.9691 7.02765 24.4751 7.00178 24.9795C6.98773 25.2523 6.76412 25.4768 6.49467 25.521C6.29914 25.5533 6.10176 25.5293 5.90513 25.533C5.78205 25.5353 5.78944 25.4502 5.78944 25.3678C5.78944 24.981 5.78944 24.5946 5.78944 24.2079H5.78648Z" fill="#1B2939"/>
<path d="M21.8762 24.1967C21.8762 24.4778 21.8806 24.7589 21.8751 25.0396C21.8677 25.3967 21.6075 25.6437 21.2386 25.6527C20.8816 25.6617 20.6092 25.4297 20.6007 25.0703C20.587 24.4898 20.5881 23.9089 20.6007 23.3284C20.6077 23.0001 20.8971 22.7812 21.2763 22.7842C21.63 22.7872 21.8692 23.0091 21.8773 23.3531C21.884 23.6338 21.8788 23.9153 21.8788 24.196H21.8766L21.8762 24.1967Z" fill="#1B2939"/>
</svg>
